<svg width="56" height="56" viewBox="0 0 56 56" fill="none" xmlns="http://www.w3.org/2000/svg">
<g id="Briefcase">
<path id="Vector" opacity="0.2" d="M28.0002 33.25C20.6279 33.2615 13.3836 31.3234 7.00195 27.6321V45.5C7.00195 45.7298 7.04722 45.9573 7.13516 46.1697C7.22311 46.382 7.35201 46.5749 7.51451 46.7374C7.67702 46.8999 7.86993 47.0288 8.08225 47.1167C8.29458 47.2047 8.52214 47.25 8.75195 47.25H47.252C47.4818 47.25 47.7093 47.2047 47.9216 47.1167C48.134 47.0288 48.3269 46.8999 48.4894 46.7374C48.6519 46.5749 48.7808 46.382 48.8687 46.1697C48.9567 45.9573 49.002 45.7298 49.002 45.5V27.6301C42.6195 31.3227 35.3739 33.2616 28.0002 33.25Z" fill="#0F9918"/>
<path id="Vector_2" d="M47.252 15.7501H8.75195C7.78545 15.7501 7.00195 16.5336 7.00195 17.5001V45.5001C7.00195 46.4666 7.78545 47.2501 8.75195 47.2501H47.252C48.2185 47.2501 49.002 46.4666 49.002 45.5001V17.5001C49.002 16.5336 48.2185 15.7501 47.252 15.7501Z" stroke="#0F9918" stroke-width="3" stroke-linecap="round" stroke-linejoin="round"/>
<path id="Vector_3" d="M36.75 15.75V12.25C36.75 11.3217 36.3813 10.4315 35.7249 9.77513C35.0685 9.11875 34.1783 8.75 33.25 8.75H22.75C21.8217 8.75 20.9315 9.11875 20.2751 9.77513C19.6187 10.4315 19.25 11.3217 19.25 12.25V15.75" stroke="#0F9918" stroke-width="3" stroke-linecap="round" stroke-linejoin="round"/>
<path id="Vector_4" d="M49.0013 27.6301C42.6188 31.3227 35.3732 33.2615 27.9995 33.2499C20.6271 33.2615 13.3827 31.3233 7.00098 27.6319" stroke="#0F9918" stroke-width="3" stroke-linecap="round" stroke-linejoin="round"/>
<path id="Vector_5" d="M25.3745 26.25H30.6245" stroke="#0F9918" stroke-width="3" stroke-linecap="round" stroke-linejoin="round"/>
</g>
</svg>
