<svg width="56" height="56" viewBox="0 0 56 56" fill="none" xmlns="http://www.w3.org/2000/svg">
<g id="Buildings">
<path id="Vector" opacity="0.2" d="M31.499 47.2463V8.74628C31.499 8.28215 31.3146 7.83703 30.9865 7.50884C30.6583 7.18065 30.2132 6.99628 29.749 6.99628H8.74902C8.28489 6.99628 7.83977 7.18065 7.51159 7.50884C7.1834 7.83703 6.99902 8.28215 6.99902 8.74628V47.2463" fill="#7534FF"/>
<path id="Vector_2" d="M3.5 47.2463H52.5" stroke="#7534FF" stroke-width="2" stroke-linecap="round" stroke-linejoin="round"/>
<path id="Vector_3" d="M31.499 47.2463V8.74628C31.499 8.28215 31.3147 7.83703 30.9865 7.50884C30.6583 7.18065 30.2132 6.99628 29.749 6.99628H8.74902C8.28489 6.99628 7.83977 7.18065 7.51159 7.50884C7.1834 7.83703 6.99902 8.28215 6.99902 8.74628V47.2463" stroke="#7534FF" stroke-width="2" stroke-linecap="round" stroke-linejoin="round"/>
<path id="Vector_4" d="M48.999 47.2463V22.7463C48.999 22.2821 48.8146 21.837 48.4865 21.5088C48.1583 21.1807 47.7132 20.9963 47.249 20.9963H31.499" stroke="#7534FF" stroke-width="2" stroke-linecap="round" stroke-linejoin="round"/>
<path id="Vector_5" d="M13.999 15.7463H20.999" stroke="#7534FF" stroke-width="2" stroke-linecap="round" stroke-linejoin="round"/>
<path id="Vector_6" d="M17.499 29.7463H24.499" stroke="#7534FF" stroke-width="2" stroke-linecap="round" stroke-linejoin="round"/>
<path id="Vector_7" d="M13.999 38.4963H20.999" stroke="#7534FF" stroke-width="2" stroke-linecap="round" stroke-linejoin="round"/>
<path id="Vector_8" d="M38.499 38.4963H41.999" stroke="#7534FF" stroke-width="2" stroke-linecap="round" stroke-linejoin="round"/>
<path id="Vector_9" d="M38.499 29.7463H41.999" stroke="#7534FF" stroke-width="2" stroke-linecap="round" stroke-linejoin="round"/>
</g>
</svg>
