<svg width="56" height="56" viewBox="0 0 56 56" fill="none" xmlns="http://www.w3.org/2000/svg">
<g id="HardDrives">
<path id="Vector" opacity="0.2" d="M45.5 31.5H10.5C9.5335 31.5 8.75 32.2835 8.75 33.25V43.75C8.75 44.7165 9.5335 45.5 10.5 45.5H45.5C46.4665 45.5 47.25 44.7165 47.25 43.75V33.25C47.25 32.2835 46.4665 31.5 45.5 31.5Z" fill="#F249C8"/>
<path id="Vector_2" opacity="0.2" d="M45.5 10.5H10.5C9.5335 10.5 8.75 11.2835 8.75 12.25V22.75C8.75 23.7165 9.5335 24.5 10.5 24.5H45.5C46.4665 24.5 47.25 23.7165 47.25 22.75V12.25C47.25 11.2835 46.4665 10.5 45.5 10.5Z" fill="#F249C8"/>
<path id="Vector_3" d="M45.5 31.5H10.5C9.5335 31.5 8.75 32.2835 8.75 33.25V43.75C8.75 44.7165 9.5335 45.5 10.5 45.5H45.5C46.4665 45.5 47.25 44.7165 47.25 43.75V33.25C47.25 32.2835 46.4665 31.5 45.5 31.5Z" stroke="#F249C8" stroke-width="2" stroke-linecap="round" stroke-linejoin="round"/>
<path id="Vector_4" d="M45.5 10.5H10.5C9.5335 10.5 8.75 11.2835 8.75 12.25V22.75C8.75 23.7165 9.5335 24.5 10.5 24.5H45.5C46.4665 24.5 47.25 23.7165 47.25 22.75V12.25C47.25 11.2835 46.4665 10.5 45.5 10.5Z" stroke="#F249C8" stroke-width="2" stroke-linecap="round" stroke-linejoin="round"/>
<path id="Vector_5" d="M39.375 20.125C40.8247 20.125 42 18.9497 42 17.5C42 16.0503 40.8247 14.875 39.375 14.875C37.9253 14.875 36.75 16.0503 36.75 17.5C36.75 18.9497 37.9253 20.125 39.375 20.125Z" fill="#F249C8"/>
<path id="Vector_6" d="M39.375 41.125C40.8247 41.125 42 39.9497 42 38.5C42 37.0503 40.8247 35.875 39.375 35.875C37.9253 35.875 36.75 37.0503 36.75 38.5C36.75 39.9497 37.9253 41.125 39.375 41.125Z" fill="#F249C8"/>
</g>
</svg>
