<svg width="56" height="56" viewBox="0 0 56 56" fill="none" xmlns="http://www.w3.org/2000/svg">
<g id="Users">
<path id="Vector" opacity="0.2" d="M19.25 35.0001C25.5322 35.0001 30.625 29.9073 30.625 23.6251C30.625 17.3428 25.5322 12.2501 19.25 12.2501C12.9678 12.2501 7.875 17.3428 7.875 23.6251C7.875 29.9073 12.9678 35.0001 19.25 35.0001Z" fill="#FF8800"/>
<path id="Vector_2" d="M19.25 35.0001C25.5322 35.0001 30.625 29.9073 30.625 23.6251C30.625 17.3428 25.5322 12.2501 19.25 12.2501C12.9678 12.2501 7.875 17.3428 7.875 23.6251C7.875 29.9073 12.9678 35.0001 19.25 35.0001Z" stroke="#FF8800" stroke-width="2" stroke-miterlimit="10"/>
<path id="Vector_3" d="M33.9966 12.6738C35.5611 12.2329 37.202 12.1325 38.8086 12.3793C40.4152 12.626 41.9503 13.2142 43.3105 14.1041C44.6707 14.9941 45.8243 16.1652 46.6938 17.5386C47.5632 18.912 48.1283 20.4557 48.3509 22.0658C48.5735 23.676 48.4484 25.3151 47.9842 26.8729C47.5199 28.4306 46.7273 29.8708 45.6596 31.0964C44.5919 32.322 43.2739 33.3046 41.7945 33.978C40.3151 34.6513 38.7085 34.9999 37.0831 35" stroke="#FF8800" stroke-width="2" stroke-linecap="round" stroke-linejoin="round"/>
<path id="Vector_4" d="M3.49902 43.1806C5.27557 40.6536 7.63404 38.5911 10.3753 37.1673C13.1166 35.7435 16.1602 35.0002 19.2492 35.0001C22.3382 34.9999 25.3819 35.743 28.1233 37.1666C30.8646 38.5902 33.2233 40.6525 35 43.1794" stroke="#FF8800" stroke-width="2" stroke-linecap="round" stroke-linejoin="round"/>
<path id="Vector_5" d="M37.0825 35.0001C40.1718 34.9978 43.2161 35.74 45.9577 37.1638C48.6993 38.5876 51.0575 40.651 52.8326 43.1794" stroke="#FF8800" stroke-width="2" stroke-linecap="round" stroke-linejoin="round"/>
</g>
</svg>
