<svg width="126" height="123" viewBox="0 0 126 123" fill="none" xmlns="http://www.w3.org/2000/svg">
<path d="M61.4096 109.277C88.2301 109.277 109.972 87.535 109.972 60.7145C109.972 33.894 88.2301 12.1516 61.4096 12.1516C34.589 12.1516 12.8467 33.894 12.8467 60.7145C12.8467 87.535 34.589 109.277 61.4096 109.277Z" fill="url(#paint0_linear_2306_4506)"/>
<path d="M87.6088 23.4519H33.8114C30.4581 23.4519 27.7397 26.1703 27.7397 29.5235H93.6805C93.6805 26.1703 90.9621 23.4519 87.6088 23.4519Z" fill="url(#paint1_linear_2306_4506)"/>
<path d="M27.7397 29.3577H93.6805V79.5792C93.6805 81.8121 92.7934 83.9535 91.2146 85.5324C89.6357 87.1113 87.4942 87.9983 85.2614 87.9983H36.1588C33.926 87.9983 31.7845 87.1113 30.2056 85.5324C28.6268 83.9535 27.7397 81.8121 27.7397 79.5792V29.3577Z" fill="url(#paint2_linear_2306_4506)"/>
<path d="M82.346 35.7009H39.0962C38.1955 35.7009 37.4653 36.4303 37.4653 37.33C37.4653 38.2298 38.1955 38.9591 39.0962 38.9591H82.346C83.2467 38.9591 83.9768 38.2298 83.9768 37.33C83.9768 36.4303 83.2467 35.7009 82.346 35.7009Z" fill="url(#paint3_linear_2306_4506)"/>
<path d="M82.346 49.5439H39.0962C38.1955 49.5439 37.4653 50.2733 37.4653 51.173C37.4653 52.0728 38.1955 52.8022 39.0962 52.8022H82.346C83.2467 52.8022 83.9768 52.0728 83.9768 51.173C83.9768 50.2733 83.2467 49.5439 82.346 49.5439Z" fill="url(#paint4_linear_2306_4506)"/>
<path d="M82.346 63.3867H39.0962C38.1955 63.3867 37.4653 64.1161 37.4653 65.0158C37.4653 65.9156 38.1955 66.6449 39.0962 66.6449H82.346C83.2467 66.6449 83.9768 65.9156 83.9768 65.0158C83.9768 64.1161 83.2467 63.3867 82.346 63.3867Z" fill="url(#paint5_linear_2306_4506)"/>
<path d="M82.346 77.2295H39.0962C38.1955 77.2295 37.4653 77.9589 37.4653 78.8586C37.4653 79.7583 38.1955 80.4877 39.0962 80.4877H82.346C83.2467 80.4877 83.9768 79.7583 83.9768 78.8586C83.9768 77.9589 83.2467 77.2295 82.346 77.2295Z" fill="url(#paint6_linear_2306_4506)"/>
<g filter="url(#filter0_d_2306_4506)">
<path d="M38.8032 60.4177H15.7733C13.9232 60.4177 12.4233 61.9176 12.4233 63.7677V96.6851C12.4233 98.5353 13.9232 100.035 15.7733 100.035H38.8032C40.6533 100.035 42.1531 98.5353 42.1531 96.6851V63.7677C42.1531 61.9176 40.6533 60.4177 38.8032 60.4177Z" fill="url(#paint7_linear_2306_4506)"/>
</g>
<g filter="url(#filter1_d_2306_4506)">
<path d="M104.361 9H78.9241C77.7387 9 76.7778 9.96091 76.7778 11.1462V23.1024C76.7778 24.2878 77.7387 25.2487 78.9241 25.2487H104.361C105.547 25.2487 106.508 24.2878 106.508 23.1024V11.1462C106.508 9.96091 105.547 9 104.361 9Z" fill="url(#paint8_linear_2306_4506)"/>
</g>
<path d="M36.2333 76.885H18.3432C17.7408 76.885 17.2524 77.3734 17.2524 77.9758V77.9793C17.2524 78.5817 17.7408 79.0701 18.3432 79.0701H36.2333C36.8358 79.0701 37.3241 78.5817 37.3241 77.9793V77.9758C37.3241 77.3734 36.8358 76.885 36.2333 76.885Z" fill="url(#paint9_linear_2306_4506)"/>
<path d="M36.2431 92.2605H18.5067C17.9095 92.2605 17.4253 92.7336 17.4253 93.3173V93.3207C17.4253 93.9043 17.9095 94.3774 18.5067 94.3774H36.2431C36.8403 94.3774 37.3245 93.9043 37.3245 93.3207V93.3173C37.3245 92.7336 36.8403 92.2605 36.2431 92.2605Z" fill="url(#paint10_linear_2306_4506)"/>
<path d="M36.2431 84.2161H18.5067C17.9095 84.2161 17.4253 84.6892 17.4253 85.2728V85.2762C17.4253 85.8599 17.9095 86.333 18.5067 86.333H36.2431C36.8403 86.333 37.3245 85.8599 37.3245 85.2762V85.2728C37.3245 84.6892 36.8403 84.2161 36.2431 84.2161Z" fill="url(#paint11_linear_2306_4506)"/>
<path d="M24.8844 65.501H19.6564C18.4984 65.501 17.5596 66.4398 17.5596 67.5978V69.0486C17.5596 70.2067 18.4984 71.1455 19.6564 71.1455H24.8844C26.0424 71.1455 26.9812 70.2067 26.9812 69.0486V67.5978C26.9812 66.4398 26.0424 65.501 24.8844 65.501Z" fill="url(#paint12_linear_2306_4506)"/>
<path d="M83.0559 19.59C84.4186 19.59 85.5233 18.4853 85.5233 17.1225C85.5233 15.7598 84.4186 14.655 83.0559 14.655C81.6931 14.655 80.5884 15.7598 80.5884 17.1225C80.5884 18.4853 81.6931 19.59 83.0559 19.59Z" fill="#1F64E7"/>
<path d="M91.8737 19.59C93.2365 19.59 94.3412 18.4853 94.3412 17.1225C94.3412 15.7598 93.2365 14.655 91.8737 14.655C90.511 14.655 89.4062 15.7598 89.4062 17.1225C89.4062 18.4853 90.511 19.59 91.8737 19.59Z" fill="#1F64E7"/>
<path d="M100.692 19.59C102.054 19.59 103.159 18.4853 103.159 17.1225C103.159 15.7598 102.054 14.655 100.692 14.655C99.3288 14.655 98.2241 15.7598 98.2241 17.1225C98.2241 18.4853 99.3288 19.59 100.692 19.59Z" fill="#1F64E7"/>
<path d="M94.0017 78.4425L87.7524 85.332L105.367 101.31L111.617 94.4202L94.0017 78.4425Z" fill="url(#paint13_linear_2306_4506)"/>
<path fill-rule="evenodd" clip-rule="evenodd" d="M100.606 67.0393C100.606 81.4525 88.9217 93.1367 74.5085 93.1367C60.0953 93.1367 48.4111 81.4525 48.4111 67.0393C48.4111 52.6261 60.0953 40.9419 74.5085 40.9419C88.9217 40.9419 100.606 52.6261 100.606 67.0393ZM96.6027 67.0393C96.6027 79.2417 86.7107 89.1336 74.5083 89.1336C62.3059 89.1336 52.4139 79.2417 52.4139 67.0393C52.4139 54.8369 62.3059 44.9449 74.5083 44.9449C86.7107 44.9449 96.6027 54.8369 96.6027 67.0393Z" fill="url(#paint14_linear_2306_4506)"/>
<g filter="url(#filter2_b_2306_4506)">
<path d="M74.5089 89.1336C86.7113 89.1336 96.6033 79.2416 96.6033 67.0392C96.6033 54.8368 86.7113 44.9448 74.5089 44.9448C62.3065 44.9448 52.4146 54.8368 52.4146 67.0392C52.4146 79.2416 62.3065 89.1336 74.5089 89.1336Z" fill="url(#paint15_linear_2306_4506)" fill-opacity="0.2"/>
</g>
<path d="M79.8175 67.0393L86.1362 60.7064C86.7282 60.0799 87.0525 59.2473 87.0403 58.3854C87.0281 57.5236 86.6803 56.7005 86.0708 56.091C85.4613 55.4815 84.6382 55.1337 83.7764 55.1215C82.9145 55.1093 82.0819 55.4336 81.4554 56.0256L75.1225 62.3585L68.8038 56.0256C68.4998 55.7038 68.1343 55.4463 67.7289 55.2682C67.3236 55.0901 66.8867 54.9951 66.444 54.9889C66.0013 54.9826 65.5619 55.0652 65.1517 55.2317C64.7415 55.3982 64.3688 55.6453 64.0558 55.9583C63.7427 56.2714 63.4956 56.644 63.3291 57.0543C63.1626 57.4645 63.08 57.9039 63.0863 58.3466C63.0925 58.7893 63.1875 59.2262 63.3656 59.6315C63.5437 60.0368 63.8012 60.4023 64.123 60.7064L70.4523 67.0393L64.123 73.3721C63.8012 73.6762 63.5437 74.0417 63.3656 74.447C63.1875 74.8523 63.0925 75.2892 63.0863 75.7319C63.08 76.1746 63.1626 76.614 63.3291 77.0243C63.4956 77.4345 63.7427 77.8071 64.0558 78.1202C64.3688 78.4332 64.7415 78.6803 65.1517 78.8468C65.5619 79.0134 66.0013 79.0959 66.444 79.0896C66.8867 79.0834 67.3236 78.9884 67.7289 78.8103C68.1343 78.6322 68.4998 78.3747 68.8038 78.0529L75.1367 71.7201L81.4695 78.0529C82.1019 78.61 82.923 78.9049 83.7653 78.8776C84.6077 78.8503 85.4079 78.5028 86.003 77.906C86.598 77.3091 86.943 76.5078 86.9678 75.6654C86.9926 74.823 86.6952 74.0029 86.1362 73.3721L79.8175 67.0393Z" fill="url(#paint16_linear_2306_4506)"/>
<g filter="url(#filter3_f_2306_4506)">
<ellipse cx="75.2391" cy="79.2425" rx="15.5321" ry="2.29451" fill="#EC5575" fill-opacity="0.56"/>
</g>
<path d="M56.6459 97.1462C57.0279 95.5638 59.2787 95.5638 59.6607 97.1462C59.7972 97.7117 60.2388 98.1532 60.8043 98.2897C62.3867 98.6717 62.3867 100.923 60.8043 101.305C60.2388 101.441 59.7972 101.883 59.6607 102.448C59.2787 104.03 57.0279 104.03 56.6459 102.448C56.5094 101.883 56.0679 101.441 55.5024 101.305C53.92 100.923 53.92 98.6717 55.5024 98.2897C56.0679 98.1532 56.5094 97.7117 56.6459 97.1462Z" fill="url(#paint17_linear_2306_4506)"/>
<path d="M21.5048 15.8557C21.8868 14.2732 24.1376 14.2732 24.5196 15.8557C24.6561 16.4212 25.0977 16.8627 25.6632 16.9992C27.2456 17.3812 27.2456 19.632 25.6632 20.014C25.0977 20.1505 24.6561 20.592 24.5196 21.1575C24.1376 22.74 21.8868 22.74 21.5048 21.1575C21.3683 20.592 20.9268 20.1505 20.3613 20.014C18.7788 19.632 18.7788 17.3812 20.3613 16.9992C20.9268 16.8627 21.3683 16.4212 21.5048 15.8557Z" fill="url(#paint18_linear_2306_4506)"/>
<path fill-rule="evenodd" clip-rule="evenodd" d="M59.4734 13.6882C60.2922 13.6882 60.956 13.0244 60.956 12.2056C60.956 11.3868 60.2922 10.723 59.4734 10.723C58.6546 10.723 57.9908 11.3868 57.9908 12.2056C57.9908 13.0244 58.6546 13.6882 59.4734 13.6882ZM59.4734 14.8001C60.9063 14.8001 62.068 13.6385 62.068 12.2056C62.068 10.7727 60.9063 9.61108 59.4734 9.61108C58.0405 9.61108 56.8789 10.7727 56.8789 12.2056C56.8789 13.6385 58.0405 14.8001 59.4734 14.8001Z" fill="url(#paint19_linear_2306_4506)"/>
<path d="M106.006 56.2072C105.673 54.9011 106.879 53.7244 108.177 54.089L108.518 54.185C109.815 54.5496 110.232 56.1821 109.267 57.1235L109.013 57.3712C108.049 58.3126 106.427 57.8568 106.094 56.5508L106.006 56.2072Z" fill="url(#paint20_linear_2306_4506)"/>
<path d="M16.9574 48.5768C18.2638 48.2455 19.439 49.4528 19.0727 50.7498L18.9763 51.0911C18.61 52.3882 16.977 52.8023 16.0368 51.8365L15.7894 51.5824C14.8493 50.6167 15.3072 48.9953 16.6136 48.664L16.9574 48.5768Z" fill="url(#paint21_linear_2306_4506)"/>
<path d="M87.6629 99.8071C88.9694 99.4758 90.1446 100.683 89.7783 101.98L89.6819 102.321C89.3156 103.618 87.6825 104.033 86.7424 103.067L86.495 102.813C85.5549 101.847 86.0128 100.226 87.3192 99.8942L87.6629 99.8071Z" fill="url(#paint22_linear_2306_4506)"/>
<path fill-rule="evenodd" clip-rule="evenodd" d="M109.01 35.281C109.828 35.281 110.492 34.6172 110.492 33.7984C110.492 32.9796 109.828 32.3158 109.01 32.3158C108.191 32.3158 107.527 32.9796 107.527 33.7984C107.527 34.6172 108.191 35.281 109.01 35.281ZM109.01 36.3929C110.442 36.3929 111.604 35.2313 111.604 33.7984C111.604 32.3655 110.442 31.2039 109.01 31.2039C107.577 31.2039 106.415 32.3655 106.415 33.7984C106.415 35.2313 107.577 36.3929 109.01 36.3929Z" fill="url(#paint23_linear_2306_4506)"/>
<path d="M105.366 101.311L111.615 94.421L112.557 95.2748C113.47 96.1032 114.017 97.2604 114.077 98.4919C114.137 99.7235 113.705 100.928 112.877 101.842C112.048 102.755 110.891 103.302 109.66 103.362C108.428 103.422 107.223 102.99 106.31 102.162L105.369 101.308L105.366 101.311Z" fill="#1F64E7"/>
<defs>
<filter id="filter0_d_2306_4506" x="0.42334" y="52.4177" width="59.73" height="69.6174" filterUnits="userSpaceOnUse" color-interpolation-filters="sRGB">
<feFlood flood-opacity="0" result="BackgroundImageFix"/>
<feColorMatrix in="SourceAlpha" type="matrix" values="0 0 0 0 0 0 0 0 0 0 0 0 0 0 0 0 0 0 127 0" result="hardAlpha"/>
<feOffset dx="3" dy="7"/>
<feGaussianBlur stdDeviation="7.5"/>
<feComposite in2="hardAlpha" operator="out"/>
<feColorMatrix type="matrix" values="0 0 0 0 0.104618 0 0 0 0 0.465612 0 0 0 0 0.545833 0 0 0 0.15 0"/>
<feBlend mode="normal" in2="BackgroundImageFix" result="effect1_dropShadow_2306_4506"/>
<feBlend mode="normal" in="SourceGraphic" in2="effect1_dropShadow_2306_4506" result="shape"/>
</filter>
<filter id="filter1_d_2306_4506" x="69.7778" y="0" width="55.73" height="42.2488" filterUnits="userSpaceOnUse" color-interpolation-filters="sRGB">
<feFlood flood-opacity="0" result="BackgroundImageFix"/>
<feColorMatrix in="SourceAlpha" type="matrix" values="0 0 0 0 0 0 0 0 0 0 0 0 0 0 0 0 0 0 127 0" result="hardAlpha"/>
<feOffset dx="6" dy="4"/>
<feGaussianBlur stdDeviation="6.5"/>
<feComposite in2="hardAlpha" operator="out"/>
<feColorMatrix type="matrix" values="0 0 0 0 0.104618 0 0 0 0 0.465612 0 0 0 0 0.545833 0 0 0 0.09 0"/>
<feBlend mode="normal" in2="BackgroundImageFix" result="effect1_dropShadow_2306_4506"/>
<feBlend mode="normal" in="SourceGraphic" in2="effect1_dropShadow_2306_4506" result="shape"/>
</filter>
<filter id="filter2_b_2306_4506" x="35.7394" y="28.2697" width="77.5392" height="77.539" filterUnits="userSpaceOnUse" color-interpolation-filters="sRGB">
<feFlood flood-opacity="0" result="BackgroundImageFix"/>
<feGaussianBlur in="BackgroundImageFix" stdDeviation="8.33757"/>
<feComposite in2="SourceAlpha" operator="in" result="effect1_backgroundBlur_2306_4506"/>
<feBlend mode="normal" in="SourceGraphic" in2="effect1_backgroundBlur_2306_4506" result="shape"/>
</filter>
<filter id="filter3_f_2306_4506" x="38.8631" y="56.1041" width="72.7518" height="46.277" filterUnits="userSpaceOnUse" color-interpolation-filters="sRGB">
<feFlood flood-opacity="0" result="BackgroundImageFix"/>
<feBlend mode="normal" in="SourceGraphic" in2="BackgroundImageFix" result="shape"/>
<feGaussianBlur stdDeviation="10.422" result="effect1_foregroundBlur_2306_4506"/>
</filter>
<linearGradient id="paint0_linear_2306_4506" x1="61.0352" y1="-3.66166" x2="62.03" y2="166.884" gradientUnits="userSpaceOnUse">
<stop stop-color="white" stop-opacity="0"/>
<stop offset="1" stop-color="#1F64E7"/>
</linearGradient>
<linearGradient id="paint1_linear_2306_4506" x1="27.6651" y1="24.8532" x2="93.7134" y2="29.5104" gradientUnits="userSpaceOnUse">
<stop stop-color="#5892FF"/>
<stop offset="1" stop-color="#1F64E7"/>
</linearGradient>
<linearGradient id="paint2_linear_2306_4506" x1="25.7598" y1="73.331" x2="121.022" y2="75.0245" gradientUnits="userSpaceOnUse">
<stop stop-color="white"/>
<stop offset="1" stop-color="#BCF3FF"/>
</linearGradient>
<linearGradient id="paint3_linear_2306_4506" x1="35.4982" y1="38.8248" x2="86.728" y2="38.8248" gradientUnits="userSpaceOnUse">
<stop stop-color="#1F64E7"/>
<stop offset="1" stop-color="#CCDEFF"/>
</linearGradient>
<linearGradient id="paint4_linear_2306_4506" x1="35.4982" y1="52.6678" x2="86.728" y2="52.6678" gradientUnits="userSpaceOnUse">
<stop stop-color="#1F64E7"/>
<stop offset="1" stop-color="#CCDEFF"/>
</linearGradient>
<linearGradient id="paint5_linear_2306_4506" x1="35.4982" y1="66.5106" x2="86.728" y2="66.5106" gradientUnits="userSpaceOnUse">
<stop stop-color="#1F64E7"/>
<stop offset="1" stop-color="#CCDEFF"/>
</linearGradient>
<linearGradient id="paint6_linear_2306_4506" x1="35.4982" y1="80.3533" x2="86.728" y2="80.3533" gradientUnits="userSpaceOnUse">
<stop stop-color="#1F64E7"/>
<stop offset="1" stop-color="#CCDEFF"/>
</linearGradient>
<linearGradient id="paint7_linear_2306_4506" x1="11.5307" y1="90.1259" x2="68.5129" y2="94.8059" gradientUnits="userSpaceOnUse">
<stop stop-color="white"/>
<stop offset="1" stop-color="#1F64E7"/>
</linearGradient>
<linearGradient id="paint8_linear_2306_4506" x1="75.8852" y1="21.1845" x2="118.812" y2="22.4263" gradientUnits="userSpaceOnUse">
<stop stop-color="white"/>
<stop offset="1" stop-color="#BCF3FF"/>
</linearGradient>
<linearGradient id="paint9_linear_2306_4506" x1="39.6535" y1="79.1352" x2="15.5204" y2="79.1352" gradientUnits="userSpaceOnUse">
<stop stop-color="#8BB2FE"/>
<stop offset="1" stop-color="#1F64E7"/>
</linearGradient>
<linearGradient id="paint10_linear_2306_4506" x1="39.6338" y1="94.4405" x2="15.7082" y2="94.4405" gradientUnits="userSpaceOnUse">
<stop stop-color="#8BB2FE"/>
<stop offset="1" stop-color="#1F64E7"/>
</linearGradient>
<linearGradient id="paint11_linear_2306_4506" x1="39.6338" y1="86.3961" x2="15.7082" y2="86.3961" gradientUnits="userSpaceOnUse">
<stop stop-color="#8BB2FE"/>
<stop offset="1" stop-color="#1F64E7"/>
</linearGradient>
<linearGradient id="paint12_linear_2306_4506" x1="33.5143" y1="71.0912" x2="16.3672" y2="71.0912" gradientUnits="userSpaceOnUse">
<stop offset="0.243799" stop-color="#C0D6FF"/>
<stop offset="1" stop-color="#1F64E7"/>
</linearGradient>
<linearGradient id="paint13_linear_2306_4506" x1="91.8106" y1="89.0273" x2="98.1188" y2="82.1082" gradientUnits="userSpaceOnUse">
<stop stop-color="#5892FF"/>
<stop offset="1" stop-color="#1F64E7"/>
</linearGradient>
<linearGradient id="paint14_linear_2306_4506" x1="48.352" y1="52.9877" x2="100.89" y2="53.3288" gradientUnits="userSpaceOnUse">
<stop stop-color="#5892FF"/>
<stop offset="1" stop-color="#1F64E7"/>
</linearGradient>
<linearGradient id="paint15_linear_2306_4506" x1="74.5089" y1="44.9448" x2="96.7727" y2="102.717" gradientUnits="userSpaceOnUse">
<stop stop-color="white"/>
<stop offset="1" stop-color="#1F64E7"/>
</linearGradient>
<linearGradient id="paint16_linear_2306_4506" x1="63.2005" y1="56.6101" x2="87.1919" y2="79.0247" gradientUnits="userSpaceOnUse">
<stop stop-color="#FF698D"/>
<stop offset="1" stop-color="#FF3868"/>
</linearGradient>
<linearGradient id="paint17_linear_2306_4506" x1="49.2377" y1="95.0075" x2="67.1456" y2="95.1238" gradientUnits="userSpaceOnUse">
<stop stop-color="#5892FF"/>
<stop offset="1" stop-color="#1F64E7"/>
</linearGradient>
<linearGradient id="paint18_linear_2306_4506" x1="14.0965" y1="13.717" x2="32.0045" y2="13.8333" gradientUnits="userSpaceOnUse">
<stop stop-color="#5892FF"/>
<stop offset="1" stop-color="#1F64E7"/>
</linearGradient>
<linearGradient id="paint19_linear_2306_4506" x1="56.873" y1="10.8086" x2="62.0962" y2="10.8426" gradientUnits="userSpaceOnUse">
<stop stop-color="#5892FF"/>
<stop offset="1" stop-color="#1F64E7"/>
</linearGradient>
<linearGradient id="paint20_linear_2306_4506" x1="103.793" y1="57.0876" x2="109.167" y2="51.9106" gradientUnits="userSpaceOnUse">
<stop stop-color="#5892FF"/>
<stop offset="1" stop-color="#1F64E7"/>
</linearGradient>
<linearGradient id="paint21_linear_2306_4506" x1="16.0798" y1="46.3629" x2="21.2498" y2="51.7433" gradientUnits="userSpaceOnUse">
<stop stop-color="#5892FF"/>
<stop offset="1" stop-color="#1F64E7"/>
</linearGradient>
<linearGradient id="paint22_linear_2306_4506" x1="86.7854" y1="97.5931" x2="91.9554" y2="102.974" gradientUnits="userSpaceOnUse">
<stop stop-color="#5892FF"/>
<stop offset="1" stop-color="#1F64E7"/>
</linearGradient>
<linearGradient id="paint23_linear_2306_4506" x1="106.409" y1="32.4014" x2="111.632" y2="32.4353" gradientUnits="userSpaceOnUse">
<stop stop-color="#5892FF"/>
<stop offset="1" stop-color="#1F64E7"/>
</linearGradient>
</defs>
</svg>
