<svg width="176" height="107" viewBox="0 0 176 107" fill="none" xmlns="http://www.w3.org/2000/svg">
<rect x="0.5" y="1" width="175" height="105" rx="7.5" fill="#FFFEFE"/>
<g clip-path="url(#clip0_312_1391)">
<path d="M98.6666 21.8333C100.072 21.8333 101.224 22.9211 101.326 24.3009L101.333 24.4999V40.4999C101.333 41.9058 100.245 43.0575 98.8656 43.1593L98.6666 43.1666H77.3333C75.9275 43.1666 74.7757 42.0788 74.6739 40.6989L74.6666 40.4999V24.4999C74.6666 23.0941 75.7545 21.9424 77.1343 21.8406L77.3333 21.8333H98.6666ZM98.6666 26.3856L89.4141 35.6381C88.633 36.4191 87.3668 36.4191 86.5857 35.6381L77.3333 26.3856V40.4999H98.6666V26.3856ZM96.781 24.4999H79.2187L88 33.2811L96.781 24.4999Z" fill="#09244B"/>
</g>
<path d="M58.2428 70.04V74.7H63.3228V76.2H58.2428V81H63.9228V82.5H56.4228V68.54H63.9228V70.04H58.2428ZM74.4767 74.4V75.94H66.4967V74.4H74.4767ZM91.2723 71.34C92.1257 71.34 92.8857 71.52 93.5523 71.88C94.219 72.2267 94.7457 72.7533 95.1323 73.46C95.519 74.1667 95.7123 75.0267 95.7123 76.04V82.5H93.9123V76.3C93.9123 75.2067 93.639 74.3733 93.0923 73.8C92.559 73.2133 91.8323 72.92 90.9123 72.92C89.9657 72.92 89.2123 73.2267 88.6523 73.84C88.0923 74.44 87.8123 75.3133 87.8123 76.46V82.5H86.0123V76.3C86.0123 75.2067 85.739 74.3733 85.1923 73.8C84.659 73.2133 83.9323 72.92 83.0123 72.92C82.0657 72.92 81.3123 73.2267 80.7523 73.84C80.1923 74.44 79.9123 75.3133 79.9123 76.46V82.5H78.0923V71.54H79.9123V73.12C80.2723 72.5467 80.7523 72.1067 81.3523 71.8C81.9657 71.4933 82.639 71.34 83.3723 71.34C84.2923 71.34 85.1057 71.5467 85.8123 71.96C86.519 72.3733 87.0457 72.98 87.3923 73.78C87.699 73.0067 88.2057 72.4067 88.9123 71.98C89.619 71.5533 90.4057 71.34 91.2723 71.34ZM98.2178 76.98C98.2178 75.86 98.4445 74.88 98.8978 74.04C99.3511 73.1867 99.9711 72.5267 100.758 72.06C101.558 71.5933 102.444 71.36 103.418 71.36C104.378 71.36 105.211 71.5667 105.918 71.98C106.624 72.3933 107.151 72.9133 107.498 73.54V71.54H109.338V82.5H107.498V80.46C107.138 81.1 106.598 81.6333 105.878 82.06C105.171 82.4733 104.344 82.68 103.398 82.68C102.424 82.68 101.544 82.44 100.758 81.96C99.9711 81.48 99.3511 80.8067 98.8978 79.94C98.4445 79.0733 98.2178 78.0867 98.2178 76.98ZM107.498 77C107.498 76.1733 107.331 75.4533 106.998 74.84C106.664 74.2267 106.211 73.76 105.638 73.44C105.078 73.1067 104.458 72.94 103.778 72.94C103.098 72.94 102.478 73.1 101.918 73.42C101.358 73.74 100.911 74.2067 100.578 74.82C100.244 75.4333 100.078 76.1533 100.078 76.98C100.078 77.82 100.244 78.5533 100.578 79.18C100.911 79.7933 101.358 80.2667 101.918 80.6C102.478 80.92 103.098 81.08 103.778 81.08C104.458 81.08 105.078 80.92 105.638 80.6C106.211 80.2667 106.664 79.7933 106.998 79.18C107.331 78.5533 107.498 77.8267 107.498 77ZM113.553 69.76C113.207 69.76 112.913 69.64 112.673 69.4C112.433 69.16 112.313 68.8667 112.313 68.52C112.313 68.1733 112.433 67.88 112.673 67.64C112.913 67.4 113.207 67.28 113.553 67.28C113.887 67.28 114.167 67.4 114.393 67.64C114.633 67.88 114.753 68.1733 114.753 68.52C114.753 68.8667 114.633 69.16 114.393 69.4C114.167 69.64 113.887 69.76 113.553 69.76ZM114.433 71.54V82.5H112.613V71.54H114.433ZM119.555 67.7V82.5H117.735V67.7H119.555Z" fill="#4F4F4F"/>
<rect x="0.5" y="1" width="175" height="105" rx="7.5" stroke="#C9C9C9"/>
<defs>
<clipPath id="clip0_312_1391">
<rect width="32" height="32" fill="white" transform="translate(72 16.5)"/>
</clipPath>
</defs>
</svg>
