<svg width="176" height="107" viewBox="0 0 176 107" fill="none" xmlns="http://www.w3.org/2000/svg">
<rect x="0.5" y="1" width="175" height="105" rx="7.5" fill="#FFFEFE"/>
<g clip-path="url(#clip0_312_1388)">
<path fill-rule="evenodd" clip-rule="evenodd" d="M77.3333 32.5001C77.3333 26.609 82.1089 21.8334 88 21.8334C93.8911 21.8334 98.6667 26.609 98.6667 32.5001C98.6667 37.9395 94.5951 42.4281 89.3333 43.0842V35.1667H92C92.7364 35.1667 93.3333 34.5698 93.3333 33.8334C93.3333 33.097 92.7364 32.5001 92 32.5001H89.3333V29.8334C89.3333 29.097 89.9303 28.5001 90.6667 28.5001H91.3333C92.0697 28.5001 92.6667 27.9031 92.6667 27.1667C92.6667 26.4304 92.0697 25.8334 91.3333 25.8334H90.6667C88.4575 25.8334 86.6667 27.6243 86.6667 29.8334V32.5001H84C83.2636 32.5001 82.6667 33.097 82.6667 33.8334C82.6667 34.5698 83.2636 35.1667 84 35.1667H86.6667V43.0842C81.4049 42.4281 77.3333 37.9395 77.3333 32.5001ZM88 45.8334C95.3637 45.8334 101.333 39.8638 101.333 32.5001C101.333 25.1363 95.3637 19.1667 88 19.1667C80.6362 19.1667 74.6667 25.1363 74.6667 32.5001C74.6667 39.8638 80.6362 45.8334 88 45.8334Z" fill="#09244B"/>
</g>
<path d="M47.9505 68.56V70.04H41.8905V74.74H46.8105V76.22H41.8905V82.5H40.0705V68.56H47.9505ZM49.6686 76.98C49.6686 75.86 49.8953 74.88 50.3486 74.04C50.8019 73.1867 51.4219 72.5267 52.2086 72.06C53.0086 71.5933 53.8953 71.36 54.8686 71.36C55.8286 71.36 56.6619 71.5667 57.3686 71.98C58.0753 72.3933 58.6019 72.9133 58.9486 73.54V71.54H60.7886V82.5H58.9486V80.46C58.5886 81.1 58.0486 81.6333 57.3286 82.06C56.6219 82.4733 55.7953 82.68 54.8486 82.68C53.8753 82.68 52.9953 82.44 52.2086 81.96C51.4219 81.48 50.8019 80.8067 50.3486 79.94C49.8953 79.0733 49.6686 78.0867 49.6686 76.98ZM58.9486 77C58.9486 76.1733 58.7819 75.4533 58.4486 74.84C58.1153 74.2267 57.6619 73.76 57.0886 73.44C56.5286 73.1067 55.9086 72.94 55.2286 72.94C54.5486 72.94 53.9286 73.1 53.3686 73.42C52.8086 73.74 52.3619 74.2067 52.0286 74.82C51.6953 75.4333 51.5286 76.1533 51.5286 76.98C51.5286 77.82 51.6953 78.5533 52.0286 79.18C52.3619 79.7933 52.8086 80.2667 53.3686 80.6C53.9286 80.92 54.5486 81.08 55.2286 81.08C55.9086 81.08 56.5286 80.92 57.0886 80.6C57.6619 80.2667 58.1153 79.7933 58.4486 79.18C58.7819 78.5533 58.9486 77.8267 58.9486 77ZM63.3842 77C63.3842 75.8667 63.6109 74.88 64.0642 74.04C64.5175 73.1867 65.1442 72.5267 65.9442 72.06C66.7575 71.5933 67.6842 71.36 68.7242 71.36C70.0709 71.36 71.1775 71.6867 72.0442 72.34C72.9242 72.9933 73.5042 73.9 73.7842 75.06H71.8242C71.6375 74.3933 71.2709 73.8667 70.7242 73.48C70.1909 73.0933 69.5242 72.9 68.7242 72.9C67.6842 72.9 66.8442 73.26 66.2042 73.98C65.5642 74.6867 65.2442 75.6933 65.2442 77C65.2442 78.32 65.5642 79.34 66.2042 80.06C66.8442 80.78 67.6842 81.14 68.7242 81.14C69.5242 81.14 70.1909 80.9533 70.7242 80.58C71.2575 80.2067 71.6242 79.6733 71.8242 78.98H73.7842C73.4909 80.1 72.9042 81 72.0242 81.68C71.1442 82.3467 70.0442 82.68 68.7242 82.68C67.6842 82.68 66.7575 82.4467 65.9442 81.98C65.1442 81.5133 64.5175 80.8533 64.0642 80C63.6109 79.1467 63.3842 78.1467 63.3842 77ZM86.4127 76.6C86.4127 76.9467 86.3927 77.3133 86.3527 77.7H77.5927C77.6593 78.78 78.026 79.6267 78.6927 80.24C79.3727 80.84 80.1927 81.14 81.1527 81.14C81.9393 81.14 82.5927 80.96 83.1127 80.6C83.646 80.2267 84.0193 79.7333 84.2327 79.12H86.1927C85.8993 80.1733 85.3127 81.0333 84.4327 81.7C83.5527 82.3533 82.4593 82.68 81.1527 82.68C80.1127 82.68 79.1793 82.4467 78.3527 81.98C77.5393 81.5133 76.8993 80.8533 76.4327 80C75.966 79.1333 75.7327 78.1333 75.7327 77C75.7327 75.8667 75.9593 74.8733 76.4127 74.02C76.866 73.1667 77.4993 72.5133 78.3127 72.06C79.1393 71.5933 80.086 71.36 81.1527 71.36C82.1927 71.36 83.1127 71.5867 83.9127 72.04C84.7127 72.4933 85.326 73.12 85.7527 73.92C86.1927 74.7067 86.4127 75.6 86.4127 76.6ZM84.5327 76.22C84.5327 75.5267 84.3793 74.9333 84.0727 74.44C83.766 73.9333 83.346 73.5533 82.8127 73.3C82.2927 73.0333 81.7127 72.9 81.0727 72.9C80.1527 72.9 79.366 73.1933 78.7127 73.78C78.0727 74.3667 77.706 75.18 77.6127 76.22H84.5327ZM90.835 73.58C91.2083 72.9267 91.755 72.3933 92.475 71.98C93.195 71.5667 94.015 71.36 94.935 71.36C95.9217 71.36 96.8083 71.5933 97.595 72.06C98.3817 72.5267 99.0017 73.1867 99.455 74.04C99.9083 74.88 100.135 75.86 100.135 76.98C100.135 78.0867 99.9083 79.0733 99.455 79.94C99.0017 80.8067 98.375 81.48 97.575 81.96C96.7883 82.44 95.9083 82.68 94.935 82.68C93.9883 82.68 93.155 82.4733 92.435 82.06C91.7283 81.6467 91.195 81.12 90.835 80.48V82.5H89.015V67.7H90.835V73.58ZM98.275 76.98C98.275 76.1533 98.1083 75.4333 97.775 74.82C97.4417 74.2067 96.9883 73.74 96.415 73.42C95.855 73.1 95.235 72.94 94.555 72.94C93.8883 72.94 93.2683 73.1067 92.695 73.44C92.135 73.76 91.6817 74.2333 91.335 74.86C91.0017 75.4733 90.835 76.1867 90.835 77C90.835 77.8267 91.0017 78.5533 91.335 79.18C91.6817 79.7933 92.135 80.2667 92.695 80.6C93.2683 80.92 93.8883 81.08 94.555 81.08C95.235 81.08 95.855 80.92 96.415 80.6C96.9883 80.2667 97.4417 79.7933 97.775 79.18C98.1083 78.5533 98.275 77.82 98.275 76.98ZM107.511 82.68C106.484 82.68 105.551 82.4467 104.711 81.98C103.884 81.5133 103.231 80.8533 102.751 80C102.284 79.1333 102.051 78.1333 102.051 77C102.051 75.88 102.291 74.8933 102.771 74.04C103.264 73.1733 103.931 72.5133 104.771 72.06C105.611 71.5933 106.551 71.36 107.591 71.36C108.631 71.36 109.571 71.5933 110.411 72.06C111.251 72.5133 111.911 73.1667 112.391 74.02C112.884 74.8733 113.131 75.8667 113.131 77C113.131 78.1333 112.877 79.1333 112.371 80C111.877 80.8533 111.204 81.5133 110.351 81.98C109.497 82.4467 108.551 82.68 107.511 82.68ZM107.511 81.08C108.164 81.08 108.777 80.9267 109.351 80.62C109.924 80.3133 110.384 79.8533 110.731 79.24C111.091 78.6267 111.271 77.88 111.271 77C111.271 76.12 111.097 75.3733 110.751 74.76C110.404 74.1467 109.951 73.6933 109.391 73.4C108.831 73.0933 108.224 72.94 107.571 72.94C106.904 72.94 106.291 73.0933 105.731 73.4C105.184 73.6933 104.744 74.1467 104.411 74.76C104.077 75.3733 103.911 76.12 103.911 77C103.911 77.8933 104.071 78.6467 104.391 79.26C104.724 79.8733 105.164 80.3333 105.711 80.64C106.257 80.9333 106.857 81.08 107.511 81.08ZM120.504 82.68C119.477 82.68 118.544 82.4467 117.704 81.98C116.877 81.5133 116.224 80.8533 115.744 80C115.277 79.1333 115.044 78.1333 115.044 77C115.044 75.88 115.284 74.8933 115.764 74.04C116.257 73.1733 116.924 72.5133 117.764 72.06C118.604 71.5933 119.544 71.36 120.584 71.36C121.624 71.36 122.564 71.5933 123.404 72.06C124.244 72.5133 124.904 73.1667 125.384 74.02C125.877 74.8733 126.124 75.8667 126.124 77C126.124 78.1333 125.87 79.1333 125.364 80C124.87 80.8533 124.197 81.5133 123.344 81.98C122.49 82.4467 121.544 82.68 120.504 82.68ZM120.504 81.08C121.157 81.08 121.77 80.9267 122.344 80.62C122.917 80.3133 123.377 79.8533 123.724 79.24C124.084 78.6267 124.264 77.88 124.264 77C124.264 76.12 124.09 75.3733 123.744 74.76C123.397 74.1467 122.944 73.6933 122.384 73.4C121.824 73.0933 121.217 72.94 120.564 72.94C119.897 72.94 119.284 73.0933 118.724 73.4C118.177 73.6933 117.737 74.1467 117.404 74.76C117.07 75.3733 116.904 76.12 116.904 77C116.904 77.8933 117.064 78.6467 117.384 79.26C117.717 79.8733 118.157 80.3333 118.704 80.64C119.25 80.9333 119.85 81.08 120.504 81.08ZM134.837 82.5L130.537 77.66V82.5H128.717V67.7H130.537V76.4L134.757 71.54H137.297L132.137 77L137.317 82.5H134.837Z" fill="#4F4F4F"/>
<rect x="0.5" y="1" width="175" height="105" rx="7.5" stroke="#C9C9C9"/>
<defs>
<clipPath id="clip0_312_1388">
<rect width="32" height="32" fill="white" transform="translate(72 16.5)"/>
</clipPath>
</defs>
</svg>
