<svg width="176" height="107" viewBox="0 0 176 107" fill="none" xmlns="http://www.w3.org/2000/svg">
<rect x="0.5" y="1" width="175" height="105" rx="7.5" fill="#FFFEFE"/>
<g clip-path="url(#clip0_312_1390)">
<path d="M96 20.5C98.2092 20.5 100 22.2909 100 24.5V40.5C100 42.7092 98.2092 44.5 96 44.5H80C77.7909 44.5 76 42.7092 76 40.5V24.5C76 22.2909 77.7909 20.5 80 20.5H96ZM96 23.1667H80C79.2636 23.1667 78.6667 23.7636 78.6667 24.5V40.5C78.6667 41.2364 79.2636 41.8333 80 41.8333H96C96.7364 41.8333 97.3333 41.2364 97.3333 40.5V24.5C97.3333 23.7636 96.7364 23.1667 96 23.1667ZM82.6667 29.8333C83.3504 29.8333 83.914 30.348 83.991 31.0112L84 31.1667V37.8333C84 38.5697 83.403 39.1667 82.6667 39.1667C81.9829 39.1667 81.4193 38.652 81.3423 37.9888L81.3333 37.8333V31.1667C81.3333 30.4303 81.9303 29.8333 82.6667 29.8333ZM86.6667 28.5C87.3217 28.5 87.8664 28.9724 87.9788 29.595C88.2484 29.4391 88.5267 29.2986 88.8089 29.1778C89.6985 28.7973 91.0309 28.5879 92.2332 28.966C92.8635 29.1641 93.4976 29.5388 93.9677 30.1741C94.3873 30.7414 94.6132 31.4312 94.6582 32.2057L94.6667 32.5V37.8333C94.6667 38.5696 94.0697 39.1667 93.3333 39.1667C92.6495 39.1667 92.086 38.6518 92.009 37.9888L92 37.8333V32.5C92 32.0609 91.8935 31.8543 91.824 31.7601C91.7524 31.6635 91.6365 31.5737 91.4335 31.5099C90.9691 31.3639 90.3015 31.4397 89.8577 31.6296C89.1897 31.9153 88.5796 32.3628 88.1652 32.7778L88 32.9531V37.8333C88 38.5697 87.4031 39.1667 86.6667 39.1667C85.9829 39.1667 85.4193 38.652 85.3423 37.9888L85.3333 37.8333V29.8333C85.3333 29.097 85.9303 28.5 86.6667 28.5ZM82.6667 25.8333C83.403 25.8333 84 26.4303 84 27.1667C84 27.903 83.403 28.5 82.6667 28.5C81.9303 28.5 81.3333 27.903 81.3333 27.1667C81.3333 26.4303 81.9303 25.8333 82.6667 25.8333Z" fill="#09244B"/>
</g>
<path d="M50.5233 81.02H55.4033V82.5H48.7033V68.56H50.5233V81.02ZM58.4761 69.76C58.1294 69.76 57.8361 69.64 57.5961 69.4C57.3561 69.16 57.2361 68.8667 57.2361 68.52C57.2361 68.1733 57.3561 67.88 57.5961 67.64C57.8361 67.4 58.1294 67.28 58.4761 67.28C58.8094 67.28 59.0894 67.4 59.3161 67.64C59.5561 67.88 59.6761 68.1733 59.6761 68.52C59.6761 68.8667 59.5561 69.16 59.3161 69.4C59.0894 69.64 58.8094 69.76 58.4761 69.76ZM59.3561 71.54V82.5H57.5361V71.54H59.3561ZM67.998 71.34C69.3313 71.34 70.4113 71.7467 71.238 72.56C72.0646 73.36 72.478 74.52 72.478 76.04V82.5H70.678V76.3C70.678 75.2067 70.4046 74.3733 69.858 73.8C69.3113 73.2133 68.5646 72.92 67.618 72.92C66.658 72.92 65.8913 73.22 65.318 73.82C64.758 74.42 64.478 75.2933 64.478 76.44V82.5H62.658V71.54H64.478V73.1C64.838 72.54 65.3246 72.1067 65.938 71.8C66.5646 71.4933 67.2513 71.34 67.998 71.34ZM81.7709 82.5L77.4709 77.66V82.5H75.6509V67.7H77.4709V76.4L81.6909 71.54H84.2309L79.0709 77L84.2509 82.5H81.7709ZM96.1439 76.6C96.1439 76.9467 96.1239 77.3133 96.0839 77.7H87.3239C87.3906 78.78 87.7572 79.6267 88.4239 80.24C89.1039 80.84 89.9239 81.14 90.8839 81.14C91.6706 81.14 92.3239 80.96 92.8439 80.6C93.3772 80.2267 93.7506 79.7333 93.9639 79.12H95.9239C95.6306 80.1733 95.0439 81.0333 94.1639 81.7C93.2839 82.3533 92.1906 82.68 90.8839 82.68C89.8439 82.68 88.9106 82.4467 88.0839 81.98C87.2706 81.5133 86.6306 80.8533 86.1639 80C85.6972 79.1333 85.4639 78.1333 85.4639 77C85.4639 75.8667 85.6906 74.8733 86.1439 74.02C86.5972 73.1667 87.2306 72.5133 88.0439 72.06C88.8706 71.5933 89.8172 71.36 90.8839 71.36C91.9239 71.36 92.8439 71.5867 93.6439 72.04C94.4439 72.4933 95.0572 73.12 95.4839 73.92C95.9239 74.7067 96.1439 75.6 96.1439 76.6ZM94.2639 76.22C94.2639 75.5267 94.1106 74.9333 93.8039 74.44C93.4972 73.9333 93.0772 73.5533 92.5439 73.3C92.0239 73.0333 91.4439 72.9 90.8039 72.9C89.8839 72.9 89.0972 73.1933 88.4439 73.78C87.8039 74.3667 87.4372 75.18 87.3439 76.22H94.2639ZM98.0663 76.98C98.0663 75.86 98.2929 74.88 98.7463 74.04C99.1996 73.1867 99.8196 72.5267 100.606 72.06C101.406 71.5933 102.3 71.36 103.286 71.36C104.14 71.36 104.933 71.56 105.666 71.96C106.4 72.3467 106.96 72.86 107.346 73.5V67.7H109.186V82.5H107.346V80.44C106.986 81.0933 106.453 81.6333 105.746 82.06C105.04 82.4733 104.213 82.68 103.266 82.68C102.293 82.68 101.406 82.44 100.606 81.96C99.8196 81.48 99.1996 80.8067 98.7463 79.94C98.2929 79.0733 98.0663 78.0867 98.0663 76.98ZM107.346 77C107.346 76.1733 107.18 75.4533 106.846 74.84C106.513 74.2267 106.06 73.76 105.486 73.44C104.926 73.1067 104.306 72.94 103.626 72.94C102.946 72.94 102.326 73.1 101.766 73.42C101.206 73.74 100.76 74.2067 100.426 74.82C100.093 75.4333 99.9263 76.1533 99.9263 76.98C99.9263 77.82 100.093 78.5533 100.426 79.18C100.76 79.7933 101.206 80.2667 101.766 80.6C102.326 80.92 102.946 81.08 103.626 81.08C104.306 81.08 104.926 80.92 105.486 80.6C106.06 80.2667 106.513 79.7933 106.846 79.18C107.18 78.5533 107.346 77.8267 107.346 77ZM114.282 68.56V82.5H112.462V68.56H114.282ZM122.924 71.34C124.257 71.34 125.337 71.7467 126.164 72.56C126.99 73.36 127.404 74.52 127.404 76.04V82.5H125.604V76.3C125.604 75.2067 125.33 74.3733 124.784 73.8C124.237 73.2133 123.49 72.92 122.544 72.92C121.584 72.92 120.817 73.22 120.244 73.82C119.684 74.42 119.404 75.2933 119.404 76.44V82.5H117.584V71.54H119.404V73.1C119.764 72.54 120.25 72.1067 120.864 71.8C121.49 71.4933 122.177 71.34 122.924 71.34Z" fill="#4F4F4F"/>
<rect x="0.5" y="1" width="175" height="105" rx="7.5" stroke="#C9C9C9"/>
<defs>
<clipPath id="clip0_312_1390">
<rect width="32" height="32" fill="white" transform="translate(72 16.5)"/>
</clipPath>
</defs>
</svg>
