<svg width="168" height="23" viewBox="0 0 168 23" fill="none" xmlns="http://www.w3.org/2000/svg">
<path fill-rule="evenodd" clip-rule="evenodd" d="M0 22.0892V0H22.0071V22.0892H18.7393V22.0883L18.7384 22.0892L10.8926 14.214L13.2181 11.8809L18.7393 17.423V3.27888H3.27783V18.7882H9.96313V22.0892H0Z" fill="#3957BD"/>
<path d="M46.2666 10.5846C46.2516 8.77411 45.7034 7.00887 44.6916 5.51265C43.6775 4.0137 42.2461 2.85048 40.5774 2.16937C38.9065 1.48709 37.073 1.31652 35.3064 1.67901C33.5411 2.04053 31.9212 2.91941 30.6499 4.20533C29.3811 5.48875 28.5187 7.1226 28.1719 8.90009C27.8257 10.6761 28.011 12.5157 28.7042 14.1855C29.3989 15.8578 30.5697 17.2853 32.0687 18.2878C33.5701 19.2921 35.3322 19.8278 37.1343 19.8278C38.8307 19.837 40.4971 19.3798 41.9543 18.5067L44.6176 21.1913L46.7733 19.0265L44.2287 16.4616C45.5612 14.7985 46.2813 12.722 46.2666 10.5846ZM39.679 16.2334C38.8901 16.6308 38.0172 16.8314 37.1343 16.8185C33.6839 16.8185 31.4515 14.0696 31.4515 10.5846C31.4515 7.09965 33.6839 4.35069 37.1343 4.35069C40.5847 4.35069 42.8171 7.12173 42.8171 10.5846C42.8269 11.8039 42.522 13.0048 41.9324 14.0696L39.3229 11.4503L37.1672 13.6151L37.2859 13.7347L39.679 16.2343V16.2334ZM56.0361 13.5829C56.0361 15.628 54.8711 17.1755 53.1354 17.1755C51.6042 17.1755 50.8281 16.0936 50.8281 14.0153V6.85125H47.7119V14.4265C47.7119 17.9336 49.0386 19.838 52.0251 19.838C52.8855 19.7994 53.7186 19.5224 54.4328 19.0376C55.1461 18.5527 55.7121 17.8783 56.0681 17.089V19.4598H59.2062V6.85125H56.0361V13.5829ZM64.4033 6.85125H61.2871V19.47H64.4033V6.85125ZM64.4033 1.75353H61.2871V4.88153H64.4033V1.75353ZM73.6433 6.47221C72.7858 6.51257 71.9561 6.79083 71.2456 7.27629C70.5361 7.76074 69.9738 8.43398 69.6213 9.22117V6.85125H66.5489V19.47H69.6651V12.7273C69.6651 10.661 70.7425 9.14573 72.5321 9.14573C74.0642 9.14573 75.0777 10.2276 75.0777 12.2949V19.4709H78.2149V11.8947C78.2149 8.38765 76.6298 6.48325 73.6433 6.48325V6.47221ZM83.1855 3.16021H80.0921V16.3429C80.0413 16.767 80.0874 17.1971 80.2268 17.6005C80.3662 18.0039 80.5953 18.3699 80.8965 18.6705C81.1981 18.9726 81.564 19.2016 81.9664 19.3402C82.3688 19.4789 82.7972 19.5236 83.2193 19.4709H86.6587V16.7431H84.0931C83.9176 16.7661 83.7395 16.7282 83.5882 16.6358C83.4369 16.5433 83.3213 16.4018 83.2604 16.2343C83.2207 16.1234 83.2066 16.0047 83.2193 15.8875V9.39413H86.6587V6.79697H83.1864V3.16021H83.1855Z" fill="black"/>
<path d="M93.7093 6.43999C92.3767 6.39437 91.0608 6.74955 89.9293 7.46027C88.7998 8.16956 87.9063 9.20275 87.3636 10.4273C86.8216 11.6506 86.6561 13.0096 86.8885 14.3287C87.1209 15.6478 87.7406 16.8663 88.6675 17.8268C89.5966 18.7897 90.789 19.4523 92.0929 19.7305C93.3968 20.0086 94.7534 19.8898 95.9901 19.389C97.226 18.8884 98.2856 18.0277 99.0332 16.917C99.7789 15.8082 100.178 14.4999 100.179 13.1606C100.221 12.2853 100.085 11.4106 99.7776 10.5907C99.4705 9.77076 98.9996 9.02312 98.3941 8.39407C97.7871 7.76319 97.0582 7.26425 96.2525 6.92802C95.4468 6.59179 94.5813 6.42539 93.7093 6.43907V6.43999ZM93.7093 17.0458C91.8768 17.0458 90.3886 15.6823 90.3886 13.1606C90.3886 10.6389 91.8768 9.24231 93.7093 9.24231C95.5427 9.24231 97.0519 10.6278 97.0519 13.1606C97.0519 15.6934 95.5746 17.0458 93.7093 17.0458ZM106.885 1.79675L100.06 19.47H103.565L105.171 14.9463H112.492L114.12 19.4709H117.625L110.778 1.79675H106.885ZM106.098 12.3492L108.816 4.77295L111.565 12.3492H106.098ZM125.55 6.47219C124.691 6.51408 123.861 6.79287 123.149 7.27811C122.438 7.76248 121.873 8.43475 121.517 9.22115L121.571 6.85123H118.509V19.47H121.625V12.7273C121.625 10.661 122.703 9.14571 124.493 9.14571C126.025 9.14571 127.038 10.2276 127.038 12.2949V19.4709H130.175V11.8947C130.175 8.38763 128.59 6.48323 125.604 6.48323L125.55 6.47219ZM141.519 8.99391C141.135 8.22748 140.545 7.58489 139.817 7.13914C139.089 6.69338 138.251 6.46232 137.399 6.47219C133.895 6.47219 131.534 9.56707 131.534 13.1827C131.534 16.7974 133.895 19.849 137.399 19.849C138.259 19.8367 139.099 19.5935 139.834 19.1443C140.567 18.6955 141.167 18.057 141.573 17.2951V19.4598H144.688V1.79675H141.573L141.519 8.99391ZM138.176 17.1221C137.692 17.0948 137.219 16.9704 136.783 16.7564C136.347 16.5423 135.958 16.2429 135.639 15.8755C135.321 15.5088 135.079 15.0815 134.928 14.619C134.776 14.1565 134.719 13.6681 134.758 13.1827C134.699 12.4466 134.859 11.7094 135.219 11.0662C135.58 10.4229 136.123 9.90306 136.778 9.57351C137.215 9.35367 137.69 9.22297 138.176 9.18895C139.158 9.2632 140.071 9.72474 140.716 10.4733C141.361 11.2206 141.684 12.1951 141.616 13.1827C141.668 13.9156 141.501 14.6475 141.137 15.284C140.772 15.9204 140.227 16.4322 139.571 16.7532C139.135 16.9675 138.661 17.0926 138.176 17.1212V17.1221ZM152.29 6.43999C148.84 6.43999 146.78 8.48515 146.381 10.3574L149.497 10.9094C149.681 10.338 150.047 9.84348 150.537 9.50175C151.029 9.15972 151.618 8.98912 152.214 9.01599C152.552 9.00039 152.89 9.05792 153.204 9.18472C153.518 9.31151 153.801 9.50463 154.035 9.75107C154.268 9.99697 154.446 10.2906 154.556 10.6119C154.666 10.9333 154.706 11.2748 154.673 11.6132V13.2149C153.639 12.3113 152.299 11.8426 150.932 11.9057C148.29 11.9057 146.23 13.3878 146.23 15.812C146.23 18.2372 147.966 19.8278 150.651 19.8278C151.448 19.8699 152.243 19.7072 152.96 19.355C153.677 19.0032 154.292 18.4731 154.748 17.8149L154.673 19.4267H157.799V11.3436C157.799 8.21559 155.708 6.39767 152.29 6.39767V6.43999ZM151.934 17.5444C150.22 17.5444 149.422 16.6888 149.422 15.7798C149.422 14.8709 150.198 13.9288 151.934 13.9288C153.498 13.9288 154.727 14.6114 154.727 15.5738C154.727 16.537 153.519 17.5444 151.934 17.5444ZM166.803 6.64515C165.878 6.68284 164.99 7.01889 164.268 7.60379C163.548 8.18754 163.034 8.99003 162.803 9.89183H162.717L162.889 6.79603H159.773V19.4157H162.889V14.1882C162.889 10.6278 164.754 9.62135 166.566 9.62135H168V6.72059C167.601 6.65334 167.197 6.62071 166.792 6.62307" fill="black"/>
</svg>
