<svg width="45" height="40" viewBox="0 0 45 40" fill="none" xmlns="http://www.w3.org/2000/svg">
<g clip-path="url(#clip0_1964_396)">
<path d="M0 40V0H44.0116C45.9936 13.3401 45.2173 25.9997 39.613 40H0Z" fill="#009FA0"/>
<path d="M17.8582 15.1191L17.6719 15.2753C18.0807 15.4164 18.5257 15.1443 18.6137 14.9074L18.6344 14.6504C18.3084 14.7209 17.9875 14.8772 17.8582 15.1191Z" fill="#3B4395"/>
<path d="M20.0782 16.3588L19.7573 16.3387C19.7573 16.6159 19.8505 16.8426 20.1506 17.019L20.3938 17.0694C20.725 16.7922 20.2852 16.5151 20.0833 16.3538L20.0782 16.3588Z" fill="#3B4395"/>
<path d="M16.8335 9.84755L16.5955 10.0139C17.0871 10.1852 17.4907 9.93323 17.6666 9.58549L17.7443 9.27303C17.3562 9.3587 17.0508 9.3587 16.8335 9.84755Z" fill="#3B4395"/>
<path d="M16.8595 11.425L16.787 11.168C16.3989 11.2536 16.1091 11.3947 15.9487 11.682V11.8836C16.4403 12.0549 16.6991 11.6266 16.8595 11.425Z" fill="#3B4395"/>
<path d="M15.6485 13.7533L15.8089 13.8491C16.3471 14.0204 16.3833 13.5971 16.5127 13.4257L16.7197 13.2493C16.2229 13.1536 15.7779 13.5114 15.6433 13.7533H15.6485Z" fill="#3B4395"/>
<path d="M18.8155 6.32984L18.624 6.42056C18.6758 6.75318 19.452 7.12611 19.6486 6.85901L19.6745 6.54151C19.4209 6.3752 19.1622 6.28449 18.8155 6.32984Z" fill="#3B4395"/>
<path d="M21.5169 5.47814L21.2168 5.38742C21.0563 5.60917 20.9735 5.77548 21.1391 6.15849L21.2944 6.46087C21.6463 6.12322 21.9982 5.80571 21.5169 5.4731V5.47814Z" fill="#3B4395"/>
<path d="M31.1109 12.8361C30.7745 12.3976 30.138 11.7979 30.6658 11.2183C30.9401 11.0117 31.0229 10.8555 31.0591 10.5733C31.173 9.58548 31.1212 9.15711 30.9763 8.61786C31.0022 8.56746 31.1057 8.62794 31.1419 8.45155C31.2454 7.97782 30.9763 7.88711 30.9763 7.88711C31.1833 7.71072 31.1626 7.05052 30.8314 7.05556C31.0125 6.76326 30.8573 6.29961 30.5313 6.4004C30.5313 6.4004 30.6969 6.31976 30.671 6.1081C30.6296 5.6898 30.0138 6.09802 30.169 5.82084C30.2518 5.67468 29.9051 5.17576 29.7292 5.56381C29.6257 5.49326 29.8016 5.25639 29.6153 5.18079C29.5067 5.18079 29.3876 5.27151 29.2479 5.3471C29.2065 5.18583 29.3773 5.1052 29.1703 4.87841C28.8857 4.68691 28.8702 4.96913 28.6735 5.07496C28.3113 4.99433 29.1651 4.7877 28.3993 4.4702C28.2026 4.92881 28.2181 4.59115 28.1302 4.52564C28.0784 4.49036 27.9594 4.60627 27.7421 4.82298C27.8559 4.5206 28.1146 4.14766 27.7369 4.25853C27.3074 4.45004 27.5558 4.2031 27.5558 4.16782C27.9284 4.00655 27.2091 3.61345 27.2401 4.02671C27.2298 4.30893 26.6088 4.54579 26.7847 4.20814C26.9037 3.77976 27.4368 4.43492 26.9762 3.67393C26.6864 3.99143 26.4535 4.2031 26.407 4.31901C26.1844 5.19087 26.3086 4.3946 26.0758 4.38452C26.3863 4.18294 26.7847 3.82512 26.6709 3.58825C26.3345 3.56306 25.5583 4.09726 26.0499 4.14262C26.0137 4.31397 25.7291 4.51556 25.5635 4.21821C25.8377 4.14766 26.3035 3.26067 25.7239 3.52274C25.667 3.57817 25.667 3.7344 25.5635 3.88056C25.4238 3.7596 25.5376 3.57313 25.4859 3.49754C25.0201 3.07925 25.1857 4.16278 25.2012 4.40468C24.5958 4.03679 25.165 4.14262 25.0046 3.53282C24.5026 3.62353 24.3681 3.83016 24.4509 4.37948C24.3836 4.51052 24.2543 4.8129 24.1715 4.43996C24.4405 4.09222 24.4198 3.59329 23.9438 3.58321C24.7096 10.4019 24.6527 17.2962 23.5608 24.0544L23.5039 24.4173C24.0524 24.4122 24.8545 24.251 25.4289 24.2207C27.09 24.2762 27.0538 24.4828 29.8016 24.4475C30.433 24.387 30.6089 24.2862 30.8159 24.2963C30.6141 23.4698 29.2272 23.9385 28.5235 23.7016C27.3281 23.5908 27.1263 22.8903 26.7485 22.3762C26.5777 22.0889 26.3293 21.7261 26.3345 21.2473C26.2414 20.6274 26.3656 20.2999 26.3552 19.6901C26.407 19.2415 26.9348 19.3322 27.2608 19.3726C28.2958 19.4733 30.0293 19.307 30.4899 19.176C31.1419 18.9845 31.1574 18.5914 30.7176 18.0018C30.6244 17.7095 30.6399 17.5331 30.7693 17.271C30.9504 17.0745 31.1833 16.9434 31.0074 16.7015C31.0074 16.7015 29.5067 16.3941 30.5416 16.2278C31.5973 16.0564 31.2454 15.6331 31.2454 15.6331C31.2454 15.6331 31.0695 15.2098 30.909 14.8923C30.79 14.6604 31.7888 14.5848 31.8974 14.217C32.1355 13.8995 31.3799 13.1939 31.116 12.8411L31.1109 12.8361ZM28.8805 12.4531C28.2337 12.5942 27.2556 12.1658 27.385 12.0801C27.7162 11.8634 28.4665 11.4854 29.191 11.7374C29.3152 11.7828 29.3669 11.8987 29.3773 12.0549C29.4083 12.4127 29.1134 12.4228 28.8805 12.4531Z" fill="#3B4395"/>
<path d="M23.5039 24.4223C22.6552 29.4922 21.2218 34.6529 19.0795 40H0V0H23.478C23.6747 1.31536 23.804 2.28298 23.9438 3.58826C23.9438 3.58826 23.5401 3.70921 23.5815 4.03175C23.6229 4.38453 23.7833 4.46516 23.7833 4.46516L23.6074 4.5458C23.6074 4.5458 23.4159 4.26861 23.4108 4.27869C23.4108 4.01159 23.5298 3.60338 22.8933 3.75457C22.6708 4.2283 23.24 4.32909 23.0951 4.65163C22.4224 4.69195 22.8933 4.15774 22.3603 4.45508C22.3965 4.30389 22.2827 3.90072 22.1119 3.92592C22.0394 4.1527 21.8583 4.53572 22.1222 4.76754C22.0394 4.82298 21.7911 4.78266 21.7341 4.70203C21.6565 4.58612 21.9152 4.38957 21.7083 4.03679C21.0873 4.29885 21.6617 4.88346 21.1494 5.10016C20.5853 5.02961 21.4754 4.56596 21.0252 4.16278C20.5181 4.27869 20.3266 4.7877 20.5336 5.09008C20.5232 5.35719 20.3059 5.49326 20.2697 5.72508C20.0161 5.68477 19.9074 5.59909 19.8816 5.50334C19.8505 5.33199 20.3421 5.24631 20.0109 4.86834C19.4727 4.94897 19.8298 5.79564 19.4003 5.34207C19.3537 5.14552 19.2192 4.96913 19.1157 4.94897C18.9139 5.09008 18.8155 5.31687 18.9449 5.51342L19.1623 5.7906C19.1364 5.78556 19.2554 5.94179 19.2244 5.93675C18.8673 5.65957 18.3964 5.46806 18.0911 5.78052C18.1273 6.07282 18.386 6.08794 18.7948 6.17866C18.2774 6.22401 18.1842 6.4004 18.0135 6.5012C17.9514 6.16858 17.5529 6.11818 17.1803 6.06778C16.9733 6.11818 16.8388 5.97707 16.7405 6.04762C16.8957 6.42056 17.2735 6.70782 17.7288 6.79854C17.9358 6.77334 17.9617 6.77838 18.1066 6.70278C18.3809 6.82878 18.3498 6.86909 18.4223 7.05556C18.0238 7.23195 17.6978 7.00517 17.2993 7.10596C17.2993 7.12108 17.1958 7.12108 17.1907 7.09588C17.1958 7.09084 17.1441 7.00013 17.1493 6.99509C16.9785 6.67255 16.5128 6.79854 16.2644 6.86909C16.2282 7.12612 16.4972 7.33778 16.7198 7.42346C17.0199 7.52929 17.113 7.44362 17.113 7.44362L17.2372 7.33778C17.3666 7.7964 17.5374 7.82159 17.7858 8.00806C17.5115 8.10886 17.408 8.18949 17.0561 8.15925C16.6628 7.56961 15.4882 7.31259 15.5296 7.58977C15.7003 8.19957 16.5645 8.34572 16.5645 8.34572C16.5645 8.34572 16.1091 8.51203 16.1868 8.65314C16.2644 8.79425 16.8595 8.88497 16.7767 9.10671C16.1557 8.83961 16.0367 8.95048 16.4558 9.47461C15.9332 9.49981 16.0522 8.95048 15.721 8.82449C15.483 8.99584 15.6227 9.35366 15.6227 9.35366C15.5037 9.26295 15.188 8.7489 14.9293 8.80937C14.8465 8.86985 14.8465 9.15207 15.0535 9.3335C14.7999 9.38894 14.3963 9.35366 14.3342 9.61572C14.743 9.9181 15.1777 9.91811 15.8142 9.84251C15.8142 9.84251 15.9332 9.84251 16.0522 9.80219C16.1764 9.76187 16.3575 9.92818 16.3575 9.92818C16.0419 9.99874 16.1764 10.0995 15.5554 10.2205C15.1466 10.412 14.8258 10.6589 14.8258 11.052C15.0793 11.173 15.3847 11.2889 15.5554 11.052C15.8245 10.669 15.7521 10.9764 15.9435 10.9613L16.1557 11.0268C15.9849 11.4351 15.0328 11.43 15.2191 11.7223C15.4002 12.0045 15.69 12.3019 15.69 12.3019C15.69 12.3019 15.0172 11.9743 14.831 12.2061C14.655 12.4228 15.0483 12.7806 15.7572 12.9318C15.514 13.0729 14.6705 12.9318 15.1828 13.4459C14.5774 13.6979 14.774 13.8743 15.2656 13.7483L15.4985 13.7735C15.3536 13.8743 14.9189 14.0658 14.9552 14.217C14.981 14.4185 15.4726 14.1666 15.5503 14.3178C15.5865 14.5345 15.3122 14.6302 15.2863 14.6907C15.633 14.9074 15.84 14.3883 16.1505 14.6907C16.0315 14.9124 15.5244 14.8671 15.633 15.1997C15.8245 15.3408 16.1402 15.2803 16.3316 15.4164C16.3316 15.4164 16.0781 15.8952 16.2075 15.9607C16.4869 16.0917 16.7456 15.6684 16.844 15.6381C16.7715 16.1925 17.2528 16.006 17.1079 16.384C17.1027 16.5856 17.0872 16.8628 17.3045 16.9686C17.7444 16.8376 17.7858 16.4999 17.7754 15.9909C17.7754 15.8145 18.2825 16.1068 18.2825 16.1068C18.593 16.3487 17.7547 16.5352 18.0031 17.0543C18.7121 17.1501 18.7121 16.5604 19.2916 16.4546C19.5452 16.6259 19.183 16.9031 19.1002 17.0997C18.7379 17.2962 18.2981 17.0593 17.9565 17.7397C18.4481 17.9362 18.681 17.775 18.8518 17.6893C19.007 17.5784 18.9915 17.528 19.1105 17.4827C19.1209 17.6691 19.0743 18.0118 19.2606 18.0874C19.421 18.0774 19.4365 18.0169 19.5711 17.9312C19.7108 18.0774 19.3434 18.4301 19.5659 18.5813C19.7729 18.546 19.835 18.3697 19.835 18.3697C19.9592 18.5309 20.0989 18.5309 20.2283 18.4906C20.3007 18.3193 20.3162 17.9262 20.0885 17.7851C20.1972 17.6591 20.4611 17.8959 20.5802 17.8103C20.7975 18.0673 20.3111 18.5662 20.6733 18.7728C21.02 18.7426 21.0045 18.3999 21.3564 18.2588C21.2943 18.6065 21.7083 18.8585 21.1804 19.1206C21.1804 19.4633 21.8273 19.3574 21.5168 19.8513C21.6358 20.0479 21.8014 19.9622 21.9463 19.9269L22.2568 19.5842C22.174 19.8614 22.1429 20.2948 22.2257 20.6174C22.1171 20.8744 22.3706 21.1717 21.8894 21.3935C21.7548 22.0386 21.7548 22.6887 20.989 23.1019C20.5543 23.8982 17.822 23.4749 17.2217 24.2661C17.3666 24.4072 18.7638 24.3618 18.9449 24.3115C19.2088 24.1855 19.4158 24.4072 19.6901 24.4022C20.3059 24.4022 21.0355 24.2056 21.5427 24.4022C22.2568 24.3971 22.8571 24.4173 23.4987 24.4223H23.5039Z" fill="#3B4395"/>
<path d="M26.5208 29.8853C26.5208 28.6204 27.1366 27.7838 28.4096 27.7838C29.6826 27.7838 30.2673 28.5549 30.2673 29.8853C30.2673 31.1251 29.667 32.0675 28.4096 32.0675C27.1521 32.0675 26.5208 31.1352 26.5208 29.8853ZM28.4096 33.529C30.6865 33.529 32.2027 31.8962 32.2027 29.8853C32.2027 27.7687 30.671 26.3223 28.4096 26.3223C26.1482 26.3223 24.5906 27.7284 24.5906 29.8853C24.5906 32.0423 26.1637 33.529 28.4096 33.529Z" fill="white"/>
<path d="M37.6931 27.809C37.2636 27.7435 36.8496 27.6477 36.4201 27.6477C35.6646 27.6477 35.1367 27.8191 35.1367 28.1819C35.1367 28.5952 35.8457 28.9278 36.6478 29.3411C37.4085 29.7392 38.4538 30.2734 38.4538 31.4728C38.4538 32.7882 37.2532 33.529 35.4265 33.529C34.5986 33.529 34.0242 33.3678 33.3359 33.2267V31.7651C33.8637 31.9264 34.7228 32.2036 35.4938 32.2036C36.0061 32.2036 36.5184 31.9768 36.5184 31.5232C36.5184 31.11 35.9078 30.858 35.0229 30.3792C34.2208 29.9912 33.2065 29.1949 33.2065 28.1819C33.2065 26.9875 34.4381 26.3223 36.0941 26.3223C36.6374 26.3223 37.1653 26.3727 37.6931 26.4382V27.809Z" fill="white"/>
<path d="M5.79054 33.2972C5.83193 32.5261 5.86298 31.9264 5.86298 30.8479V27.1488C5.86298 25.8183 5.77501 24.8053 5.57837 23.8226H8.08814C8.08814 24.503 8.0157 25.4454 8.0157 26.5088V29.966C8.0157 30.9386 8.17094 32.385 8.30031 33.2922H5.79054V33.2972Z" fill="white"/>
<path d="M11.9122 30.0769C11.9122 28.7161 12.5021 27.7838 13.7182 27.7838C14.8515 27.7838 15.6432 28.7262 15.6432 30.0718C15.6432 31.2713 15.0274 32.0675 13.8062 32.0675C12.5849 32.0675 11.9122 31.3922 11.9122 30.0769ZM12.1968 36.2001C12.0519 35.177 12.0519 34.033 12.0519 33.6601V32.8638C12.5694 33.1561 13.1128 33.529 14.2771 33.529C16.2435 33.529 17.5734 32.0675 17.5734 30.0617C17.5734 27.8796 16.1969 26.3273 14.1891 26.3273C12.7971 26.3273 12.2227 26.9775 11.7622 27.4663C11.6638 27.1085 11.6173 26.8061 11.5034 26.4987L9.68188 26.6297C9.90958 27.7989 10.1114 28.8825 10.1114 30.0769V32.8638C10.1114 33.8465 9.89405 35.6961 9.82678 36.3311L12.1917 36.2001H12.1968Z" fill="white"/>
<path d="M22.8569 27.7888C22.4274 27.7233 22.1687 27.6477 21.7392 27.6477C20.9837 27.6477 20.4558 27.8191 20.4558 28.1819C20.4558 28.5952 21.17 28.9278 21.9669 29.3411C22.7276 29.7392 23.7729 30.2734 23.7729 31.4728C23.7729 32.7882 22.5723 33.529 20.7456 33.529C19.9177 33.529 19.3433 33.3678 18.655 33.2267V31.7651C19.1828 31.9264 20.0419 32.2036 20.8129 32.2036C21.3252 32.2036 21.8375 31.9768 21.8375 31.5232C21.8375 31.11 21.2269 30.858 20.342 30.3792C19.5399 29.9912 18.5256 29.1949 18.5256 28.1819C18.5256 26.9875 19.7572 26.3223 21.4132 26.3223C21.9565 26.3223 22.6085 26.3979 23.1364 26.4584L22.8569 27.7838V27.7888Z" fill="white"/>
</g>
<defs>
<clipPath id="clip0_1964_396">
<rect width="45" height="40" fill="white"/>
</clipPath>
</defs>
</svg>
