<svg width="176" height="107" viewBox="0 0 176 107" fill="none" xmlns="http://www.w3.org/2000/svg">
<rect x="0.5" y="1" width="175" height="105" rx="7.5" fill="#FFFEFE"/>
<g clip-path="url(#clip0_312_1389)">
<path fill-rule="evenodd" clip-rule="evenodd" d="M95.7561 25.8187C95.2855 25.1411 94.0269 24.19 91.988 24.5995C90.7992 24.8383 90.0879 25.4277 89.6359 26.2031C89.1543 27.029 88.9216 28.153 88.9216 29.4616C88.9216 30.198 88.3247 30.7949 87.5883 30.7949C84.4335 30.7949 81.431 29.8581 78.9043 27.3226C78.7404 28.2347 78.6261 29.3185 78.6803 30.4422C78.7502 31.8902 79.0964 33.343 79.9163 34.587C80.7222 35.8098 82.0496 36.9299 84.2675 37.633C84.7098 37.7731 85.0474 38.1332 85.1589 38.5834C85.2704 39.0337 85.1399 39.5097 84.8142 39.8401C84.0262 40.6393 83.2337 41.2388 82.4195 41.7133C83.8338 41.8596 85.1962 41.8702 86.4596 41.756C89.0191 41.5245 91.0581 40.792 92.3333 39.7572C95.0168 37.5796 96.4539 34.3346 96.1859 28.8978C96.1419 28.0031 97.0035 27.0398 97.4196 26.3083C96.7917 26.4257 96.1624 26.4037 95.7561 25.8187ZM78.125 23.1451C78.6172 23.0878 79.1006 23.3081 79.3802 23.7172C81.3474 26.5956 83.7102 27.793 86.3319 28.0654C86.4605 26.9438 86.7632 25.8356 87.3321 24.86C88.1667 23.4284 89.524 22.3745 91.4629 21.9851C94.1421 21.4469 96.1821 22.4172 97.3659 23.6055L99.7549 23.1589C100.265 23.0635 100.785 23.2729 101.086 23.6957C101.387 24.1185 101.416 24.6777 101.159 25.1289L98.8661 29.1583C99.0752 34.9736 97.4592 39.0318 94.0137 41.8278C92.186 43.3109 89.5707 44.1521 86.6999 44.4118C83.8066 44.6736 80.5362 44.357 77.2851 43.4077C76.7147 43.2412 76.3234 42.7173 76.3255 42.1231C76.3276 41.5289 76.7226 41.0078 77.2941 40.8453C78.9291 40.3804 80.1735 39.9783 81.2984 39.2763C79.7004 38.4279 78.523 37.3189 77.6897 36.0545C76.5315 34.297 76.102 32.3378 76.0167 30.5708C75.9315 28.8039 76.1868 27.1674 76.4557 25.9863C76.6088 25.3139 76.7876 24.6385 77.034 23.9932C77.213 23.5281 77.6328 23.2025 78.125 23.1451Z" fill="#09244B"/>
</g>
<path d="M64.229 68.56V70.04H60.429V82.5H58.609V70.04H54.789V68.56H64.229ZM81.2693 71.54L77.8493 82.5H75.9693L73.3293 73.8L70.6893 82.5H68.8093L65.3693 71.54H67.2293L69.7493 80.74L72.4693 71.54H74.3293L76.9893 80.76L79.4693 71.54H81.2693ZM84.2156 69.76C83.8689 69.76 83.5756 69.64 83.3356 69.4C83.0956 69.16 82.9755 68.8667 82.9755 68.52C82.9755 68.1733 83.0956 67.88 83.3356 67.64C83.5756 67.4 83.8689 67.28 84.2156 67.28C84.5489 67.28 84.8289 67.4 85.0556 67.64C85.2956 67.88 85.4156 68.1733 85.4156 68.52C85.4156 68.8667 85.2956 69.16 85.0556 69.4C84.8289 69.64 84.5489 69.76 84.2156 69.76ZM85.0956 71.54V82.5H83.2756V71.54H85.0956ZM90.6174 73.04V79.5C90.6174 80.0333 90.7308 80.4133 90.9574 80.64C91.1841 80.8533 91.5774 80.96 92.1374 80.96H93.4774V82.5H91.8374C90.8241 82.5 90.0641 82.2667 89.5574 81.8C89.0508 81.3333 88.7974 80.5667 88.7974 79.5V73.04H87.3774V71.54H88.7974V68.78H90.6174V71.54H93.4774V73.04H90.6174ZM98.1026 73.04V79.5C98.1026 80.0333 98.2159 80.4133 98.4426 80.64C98.6692 80.8533 99.0626 80.96 99.6226 80.96H100.963V82.5H99.3226C98.3092 82.5 97.5492 82.2667 97.0426 81.8C96.5359 81.3333 96.2826 80.5667 96.2826 79.5V73.04H94.8626V71.54H96.2826V68.78H98.1026V71.54H100.963V73.04H98.1026ZM113.368 76.6C113.368 76.9467 113.348 77.3133 113.308 77.7H104.548C104.614 78.78 104.981 79.6267 105.648 80.24C106.328 80.84 107.148 81.14 108.108 81.14C108.894 81.14 109.548 80.96 110.068 80.6C110.601 80.2267 110.974 79.7333 111.188 79.12H113.148C112.854 80.1733 112.268 81.0333 111.388 81.7C110.508 82.3533 109.414 82.68 108.108 82.68C107.068 82.68 106.134 82.4467 105.308 81.98C104.494 81.5133 103.854 80.8533 103.388 80C102.921 79.1333 102.688 78.1333 102.688 77C102.688 75.8667 102.914 74.8733 103.368 74.02C103.821 73.1667 104.454 72.5133 105.268 72.06C106.094 71.5933 107.041 71.36 108.108 71.36C109.148 71.36 110.068 71.5867 110.868 72.04C111.668 72.4933 112.281 73.12 112.708 73.92C113.148 74.7067 113.368 75.6 113.368 76.6ZM111.488 76.22C111.488 75.5267 111.334 74.9333 111.028 74.44C110.721 73.9333 110.301 73.5533 109.768 73.3C109.248 73.0333 108.668 72.9 108.028 72.9C107.108 72.9 106.321 73.1933 105.668 73.78C105.028 74.3667 104.661 75.18 104.568 76.22H111.488ZM117.79 73.32C118.11 72.6933 118.563 72.2067 119.15 71.86C119.75 71.5133 120.477 71.34 121.33 71.34V73.22H120.85C118.81 73.22 117.79 74.3267 117.79 76.54V82.5H115.97V71.54H117.79V73.32Z" fill="#4F4F4F"/>
<rect x="0.5" y="1" width="175" height="105" rx="7.5" stroke="#C9C9C9"/>
<defs>
<clipPath id="clip0_312_1389">
<rect width="32" height="32" fill="white" transform="translate(72 16.5)"/>
</clipPath>
</defs>
</svg>
