<svg width="176" height="107" viewBox="0 0 176 107" fill="none" xmlns="http://www.w3.org/2000/svg">
<rect x="0.5" y="1" width="175" height="105" rx="7.5" fill="#FFFEFE"/>
<g clip-path="url(#clip0_312_1387)">
<path d="M88 19.1667C95.3637 19.1667 101.333 25.1363 101.333 32.5001C101.333 39.8638 95.3637 45.8334 88 45.8334C85.6485 45.8334 83.4361 45.2236 81.5159 44.153L81.1089 43.9166L77.0663 45.1057C76.0925 45.3922 75.1843 44.544 75.3598 43.5792L75.3944 43.4337L76.5834 39.3911C75.3667 37.3793 74.6667 35.0195 74.6667 32.5001C74.6667 25.1363 80.6362 19.1667 88 19.1667ZM88 21.8334C82.1089 21.8334 77.3333 26.609 77.3333 32.5001C77.3333 34.6026 77.9403 36.5593 78.988 38.2091C79.2525 38.6258 79.365 39.1375 79.2753 39.6453L79.2244 39.8623L78.6355 41.8645L80.6377 41.2757C81.2143 41.1061 81.8148 41.2098 82.2909 41.5121C83.9408 42.5598 85.8975 43.1667 88 43.1667C93.8911 43.1667 98.6667 38.3911 98.6667 32.5001C98.6667 26.609 93.8911 21.8334 88 21.8334ZM84.1355 26.0789C84.4233 25.9555 84.7718 25.9781 85.0474 26.1791C85.72 26.6697 86.254 27.3278 86.7125 27.9713L87.1483 28.6034C87.2175 28.7056 87.2852 28.8058 87.3517 28.9031C87.5951 29.259 87.567 29.7319 87.2913 30.0547L87.1903 30.1563L85.9591 31.0707C85.8371 31.1614 85.7964 31.3261 85.8696 31.4594C86.1483 31.9665 86.6445 32.721 87.2124 33.2889C87.7809 33.8574 88.5712 34.3858 89.1131 34.6957C89.2302 34.7627 89.3725 34.7415 89.468 34.6543L89.5192 34.5942L90.3203 33.3741C90.6273 32.9654 91.2009 32.8761 91.6179 33.1646L92.3417 33.6692C93.0609 34.1825 93.7534 34.7344 94.3007 35.4353C94.5163 35.7114 94.5483 36.0723 94.4197 36.3723C93.8917 37.6045 92.5553 38.6538 91.1653 38.6026L90.9539 38.5904L90.698 38.5651C90.6518 38.5595 90.6039 38.5533 90.5544 38.5462L90.2374 38.4937C89.0058 38.2611 87.0301 37.5628 84.9843 35.517C82.9386 33.4713 82.2402 31.4955 82.0076 30.2639L81.9551 29.947L81.9217 29.67L81.9034 29.436C81.9014 29.4007 81.8999 29.3674 81.8987 29.336C81.8475 27.944 82.9025 26.6073 84.1355 26.0789Z" fill="#09244B"/>
</g>
<path d="M54.3288 68.56L50.2888 82.5H48.2488L45.0087 71.28L41.6487 82.5L39.6287 82.52L35.7287 68.56H37.6687L40.7087 80.38L44.0687 68.56H46.1088L49.3087 80.34L52.3687 68.56H54.3288ZM61.9605 71.34C62.7871 71.34 63.5338 71.52 64.2005 71.88C64.8671 72.2267 65.3871 72.7533 65.7605 73.46C66.1471 74.1667 66.3405 75.0267 66.3405 76.04V82.5H64.5405V76.3C64.5405 75.2067 64.2671 74.3733 63.7205 73.8C63.1738 73.2133 62.4271 72.92 61.4805 72.92C60.5205 72.92 59.7538 73.22 59.1805 73.82C58.6205 74.42 58.3405 75.2933 58.3405 76.44V82.5H56.5205V67.7H58.3405V73.1C58.7005 72.54 59.1938 72.1067 59.8205 71.8C60.4605 71.4933 61.1738 71.34 61.9605 71.34ZM68.8334 76.98C68.8334 75.86 69.0601 74.88 69.5134 74.04C69.9668 73.1867 70.5868 72.5267 71.3734 72.06C72.1734 71.5933 73.0601 71.36 74.0334 71.36C74.9934 71.36 75.8268 71.5667 76.5334 71.98C77.2401 72.3933 77.7668 72.9133 78.1134 73.54V71.54H79.9534V82.5H78.1134V80.46C77.7534 81.1 77.2134 81.6333 76.4934 82.06C75.7868 82.4733 74.9601 82.68 74.0134 82.68C73.0401 82.68 72.1601 82.44 71.3734 81.96C70.5868 81.48 69.9668 80.8067 69.5134 79.94C69.0601 79.0733 68.8334 78.0867 68.8334 76.98ZM78.1134 77C78.1134 76.1733 77.9468 75.4533 77.6134 74.84C77.2801 74.2267 76.8268 73.76 76.2534 73.44C75.6934 73.1067 75.0734 72.94 74.3934 72.94C73.7134 72.94 73.0934 73.1 72.5334 73.42C71.9734 73.74 71.5268 74.2067 71.1934 74.82C70.8601 75.4333 70.6934 76.1533 70.6934 76.98C70.6934 77.82 70.8601 78.5533 71.1934 79.18C71.5268 79.7933 71.9734 80.2667 72.5334 80.6C73.0934 80.92 73.7134 81.08 74.3934 81.08C75.0734 81.08 75.6934 80.92 76.2534 80.6C76.8268 80.2667 77.2801 79.7933 77.6134 79.18C77.9468 78.5533 78.1134 77.8267 78.1134 77ZM85.4491 73.04V79.5C85.4491 80.0333 85.5624 80.4133 85.7891 80.64C86.0157 80.8533 86.4091 80.96 86.9691 80.96H88.3091V82.5H86.6691C85.6557 82.5 84.8957 82.2667 84.3891 81.8C83.8824 81.3333 83.6291 80.5667 83.6291 79.5V73.04H82.2091V71.54H83.6291V68.78H85.4491V71.54H88.3091V73.04H85.4491ZM94.5942 82.68C93.7542 82.68 93.0009 82.54 92.3342 82.26C91.6676 81.9667 91.1409 81.5667 90.7542 81.06C90.3676 80.54 90.1542 79.9467 90.1142 79.28H91.9942C92.0476 79.8267 92.3009 80.2733 92.7542 80.62C93.2209 80.9667 93.8276 81.14 94.5742 81.14C95.2676 81.14 95.8142 80.9867 96.2142 80.68C96.6142 80.3733 96.8142 79.9867 96.8142 79.52C96.8142 79.04 96.6009 78.6867 96.1742 78.46C95.7476 78.22 95.0876 77.9867 94.1942 77.76C93.3809 77.5467 92.7142 77.3333 92.1942 77.12C91.6876 76.8933 91.2476 76.5667 90.8742 76.14C90.5142 75.7 90.3342 75.1267 90.3342 74.42C90.3342 73.86 90.5009 73.3467 90.8342 72.88C91.1676 72.4133 91.6409 72.0467 92.2542 71.78C92.8676 71.5 93.5676 71.36 94.3542 71.36C95.5676 71.36 96.5476 71.6667 97.2942 72.28C98.0409 72.8933 98.4409 73.7333 98.4942 74.8H96.6742C96.6342 74.2267 96.4009 73.7667 95.9742 73.42C95.5609 73.0733 95.0009 72.9 94.2942 72.9C93.6409 72.9 93.1209 73.04 92.7342 73.32C92.3476 73.6 92.1542 73.9667 92.1542 74.42C92.1542 74.78 92.2676 75.08 92.4942 75.32C92.7342 75.5467 93.0276 75.7333 93.3742 75.88C93.7342 76.0133 94.2276 76.1667 94.8542 76.34C95.6409 76.5533 96.2809 76.7667 96.7742 76.98C97.2676 77.18 97.6876 77.4867 98.0342 77.9C98.3942 78.3133 98.5809 78.8533 98.5942 79.52C98.5942 80.12 98.4276 80.66 98.0942 81.14C97.7609 81.62 97.2876 82 96.6742 82.28C96.0742 82.5467 95.3809 82.68 94.5942 82.68ZM109.603 79.4H103.523L102.403 82.5H100.483L105.523 68.64H107.623L112.643 82.5H110.723L109.603 79.4ZM109.083 77.92L106.563 70.88L104.043 77.92H109.083ZM116.86 73.56C117.22 72.9333 117.753 72.4133 118.46 72C119.18 71.5733 120.013 71.36 120.96 71.36C121.933 71.36 122.813 71.5933 123.6 72.06C124.4 72.5267 125.027 73.1867 125.48 74.04C125.933 74.88 126.16 75.86 126.16 76.98C126.16 78.0867 125.933 79.0733 125.48 79.94C125.027 80.8067 124.4 81.48 123.6 81.96C122.813 82.44 121.933 82.68 120.96 82.68C120.027 82.68 119.2 82.4733 118.48 82.06C117.773 81.6333 117.233 81.1067 116.86 80.48V87.7H115.04V71.54H116.86V73.56ZM124.3 76.98C124.3 76.1533 124.133 75.4333 123.8 74.82C123.467 74.2067 123.013 73.74 122.44 73.42C121.88 73.1 121.26 72.94 120.58 72.94C119.913 72.94 119.293 73.1067 118.72 73.44C118.16 73.76 117.707 74.2333 117.36 74.86C117.027 75.4733 116.86 76.1867 116.86 77C116.86 77.8267 117.027 78.5533 117.36 79.18C117.707 79.7933 118.16 80.2667 118.72 80.6C119.293 80.92 119.913 81.08 120.58 81.08C121.26 81.08 121.88 80.92 122.44 80.6C123.013 80.2667 123.467 79.7933 123.8 79.18C124.133 78.5533 124.3 77.82 124.3 76.98ZM130.576 73.56C130.936 72.9333 131.469 72.4133 132.176 72C132.896 71.5733 133.729 71.36 134.676 71.36C135.649 71.36 136.529 71.5933 137.316 72.06C138.116 72.5267 138.742 73.1867 139.196 74.04C139.649 74.88 139.876 75.86 139.876 76.98C139.876 78.0867 139.649 79.0733 139.196 79.94C138.742 80.8067 138.116 81.48 137.316 81.96C136.529 82.44 135.649 82.68 134.676 82.68C133.742 82.68 132.916 82.4733 132.196 82.06C131.489 81.6333 130.949 81.1067 130.576 80.48V87.7H128.756V71.54H130.576V73.56ZM138.016 76.98C138.016 76.1533 137.849 75.4333 137.516 74.82C137.182 74.2067 136.729 73.74 136.156 73.42C135.596 73.1 134.976 72.94 134.296 72.94C133.629 72.94 133.009 73.1067 132.436 73.44C131.876 73.76 131.422 74.2333 131.076 74.86C130.742 75.4733 130.576 76.1867 130.576 77C130.576 77.8267 130.742 78.5533 131.076 79.18C131.422 79.7933 131.876 80.2667 132.436 80.6C133.009 80.92 133.629 81.08 134.296 81.08C134.976 81.08 135.596 80.92 136.156 80.6C136.729 80.2667 137.182 79.7933 137.516 79.18C137.849 78.5533 138.016 77.82 138.016 76.98Z" fill="#4F4F4F"/>
<rect x="0.5" y="1" width="175" height="105" rx="7.5" stroke="#C9C9C9"/>
<defs>
<clipPath id="clip0_312_1387">
<rect width="32" height="32" fill="white" transform="translate(72 16.5)"/>
</clipPath>
</defs>
</svg>
