<svg width="1280" height="700" viewBox="0 0 1280 700" fill="none" xmlns="http://www.w3.org/2000/svg">
<path fill-rule="evenodd" clip-rule="evenodd" d="M521.16 -126.71L520.809 -126.826C508.823 -130.766 503.332 -132.553 498.24 -133.227C480.826 -135.529 463.341 -129.528 451.012 -117.017C447.407 -113.358 444.175 -108.582 437.144 -98.1245L436.939 -97.8194L436.939 -97.8191C432.222 -90.8026 429.623 -86.9368 426.655 -83.6247C416.753 -72.5741 403.319 -65.3073 388.652 -63.0674C384.255 -62.3961 379.589 -62.3363 371.117 -62.2278L370.748 -62.223C358.153 -62.0615 352.389 -61.9708 347.366 -60.9605C330.12 -57.4912 315.506 -46.119 307.905 -30.2532C305.692 -25.6327 304.191 -20.08 300.947 -7.93585L300.852 -7.58136C298.676 0.567322 297.476 5.05687 295.751 9.14395C289.972 22.8359 279.607 34.0897 266.436 40.9743C262.505 43.0294 258.12 44.5964 250.162 47.4408L249.816 47.5646C237.977 51.796 232.566 53.7481 228.151 56.3265C212.938 65.2108 202.793 80.7357 200.764 98.2353C200.176 103.314 200.56 109.042 201.436 121.557L201.462 121.922C202.05 130.319 202.374 134.946 202.072 139.363C201.058 154.211 194.901 168.241 184.66 179.04C181.614 182.252 177.986 185.149 171.401 190.407L171.401 190.408L171.114 190.637C161.304 198.47 156.826 202.067 153.488 205.936C141.974 219.285 137.417 237.276 141.189 254.496C142.282 259.487 144.505 264.777 149.397 276.321L149.54 276.658L149.54 276.658L149.54 276.659C152.822 284.403 154.631 288.671 155.78 292.943C159.649 307.322 158.382 322.601 152.198 336.148C150.361 340.172 147.875 344.084 143.362 351.182L143.361 351.184L143.165 351.492C136.436 362.078 133.371 366.931 131.471 371.675C124.916 388.039 126.449 406.534 135.608 421.596C138.264 425.963 142.088 430.247 150.471 439.584L150.716 439.857C156.339 446.12 159.438 449.571 161.912 453.239C170.241 465.58 174.005 480.439 172.558 495.258C172.128 499.661 171.047 504.169 169.085 512.35L168.999 512.706C166.075 524.9 164.753 530.483 164.497 535.587C163.614 553.19 171.068 570.181 184.619 581.451C188.548 584.718 193.561 587.532 204.532 593.648L204.853 593.826L204.854 593.827C212.225 597.936 216.285 600.199 219.821 602.869C231.691 611.832 240.068 624.649 243.514 639.117C244.54 643.428 244.983 648.048 245.787 656.435L245.822 656.8C247.021 669.299 247.586 675.017 249.005 679.933C253.888 696.848 266.442 710.482 282.897 716.741C287.68 718.561 293.344 719.597 305.729 721.826L306.091 721.891L306.094 721.892L306.096 721.892C314.422 723.39 319.01 724.216 323.23 725.598C337.342 730.221 349.407 739.608 357.358 752.149C359.736 755.9 361.661 760.136 365.154 767.824L365.154 767.825L365.306 768.159C370.513 779.618 372.911 784.854 375.86 789.051C385.964 803.435 402.237 812.239 419.805 812.829C424.932 813 430.637 812.141 443.099 810.227L443.465 810.171C451.844 808.884 456.461 808.175 460.912 808.115C475.739 807.914 490.175 812.868 501.754 822.13C505.231 824.91 508.434 828.299 514.248 834.45L514.502 834.718C523.168 843.885 527.146 848.069 531.31 851.087C545.524 861.388 563.746 864.428 580.535 859.299C585.453 857.797 590.576 855.129 601.756 849.268L602.082 849.097L602.083 849.097L602.085 849.096C609.593 845.159 613.73 842.99 617.926 841.488C631.876 836.493 647.127 836.493 661.077 841.488C665.274 842.991 669.412 845.16 676.923 849.098L677.247 849.268C688.427 855.129 693.551 857.797 698.469 859.299C715.257 864.428 733.479 861.388 747.694 851.087C751.857 848.069 755.835 843.885 764.502 834.718L764.756 834.449C770.569 828.299 773.772 824.91 777.249 822.13C788.828 812.868 803.265 807.914 818.091 808.115C822.543 808.175 827.159 808.884 835.539 810.171L835.904 810.227C848.366 812.141 854.071 813 859.198 812.829C876.767 812.239 893.039 803.435 903.144 789.051C906.093 784.854 908.491 779.618 913.697 768.159L913.849 767.824L913.85 767.822C917.343 760.135 919.267 755.9 921.645 752.149C929.596 739.608 941.661 730.221 955.773 725.598C959.994 724.216 964.582 723.39 972.91 721.892L973.274 721.826C985.659 719.597 991.324 718.561 996.107 716.741C1012.56 710.482 1025.12 696.848 1030 679.933C1031.42 675.017 1031.98 669.299 1033.18 656.8L1033.22 656.436C1034.02 648.049 1034.46 643.428 1035.49 639.117C1038.94 624.649 1047.31 611.832 1059.18 602.869C1062.72 600.199 1066.78 597.935 1074.15 593.827L1074.47 593.648C1085.44 587.532 1090.46 584.718 1094.38 581.451C1107.94 570.181 1115.39 553.19 1114.51 535.587C1114.25 530.483 1112.93 524.9 1110 512.706L1109.92 512.35L1109.92 512.348C1107.96 504.168 1106.88 499.661 1106.45 495.258C1105 480.439 1108.76 465.58 1117.09 453.239C1119.57 449.571 1122.66 446.12 1128.29 439.856L1128.53 439.584C1136.92 430.247 1140.74 425.963 1143.4 421.596C1152.55 406.534 1154.09 388.039 1147.53 371.676C1145.63 366.931 1142.57 362.078 1135.84 351.492L1135.64 351.182C1131.13 344.083 1128.64 340.172 1126.81 336.148C1120.62 322.601 1119.35 307.322 1123.22 292.943C1124.37 288.671 1126.18 284.404 1129.46 276.66L1129.61 276.321C1134.5 264.777 1136.72 259.487 1137.81 254.496C1141.59 237.276 1137.03 219.285 1125.51 205.936C1122.18 202.067 1117.7 198.47 1107.89 190.637L1107.6 190.408C1101.02 185.15 1097.39 182.253 1094.34 179.04C1084.1 168.241 1077.95 154.211 1076.93 139.363C1076.63 134.945 1076.95 130.318 1077.54 121.919L1077.57 121.557C1078.44 109.042 1078.83 103.314 1078.24 98.2352C1076.21 80.7357 1066.07 65.2108 1050.85 56.3265C1046.44 53.7481 1041.03 51.796 1029.19 47.5646L1028.84 47.4406C1020.88 44.5963 1016.5 43.0293 1012.57 40.9743C999.396 34.0897 989.032 22.8359 983.252 9.14397C981.527 5.05688 980.328 0.567337 978.151 -7.58131L978.151 -7.5831L978.056 -7.93587C974.812 -20.08 973.311 -25.6327 971.098 -30.2532C963.498 -46.119 948.884 -57.4912 931.637 -60.9605C926.614 -61.9708 920.851 -62.0615 908.255 -62.223L907.886 -62.2278C899.415 -62.3363 894.748 -62.3961 890.352 -63.0674C875.684 -65.3073 862.25 -72.5741 852.348 -83.6247C849.38 -86.9369 846.781 -90.8028 842.064 -97.8197L841.859 -98.1245C834.828 -108.582 831.597 -113.358 827.991 -117.017C815.662 -129.528 798.177 -135.529 780.763 -133.227C775.671 -132.553 770.181 -130.766 758.195 -126.826L757.844 -126.71C749.788 -124.062 745.349 -122.602 740.964 -121.811C726.38 -119.177 711.333 -121.687 698.392 -128.911C694.502 -131.083 690.782 -133.901 684.03 -139.014L683.735 -139.238C673.67 -146.861 669.053 -150.336 664.445 -152.628C648.735 -160.444 630.269 -160.444 614.558 -152.628C609.95 -150.336 605.334 -146.861 595.268 -139.238L594.974 -139.015C588.222 -133.901 584.501 -131.084 580.611 -128.911C567.671 -121.687 552.624 -119.177 538.039 -121.811C533.654 -122.602 529.216 -124.062 521.16 -126.71ZM612.777 -156.209C607.752 -153.71 602.786 -149.949 592.853 -142.426C585.822 -137.102 582.307 -134.44 578.661 -132.404C566.529 -125.631 552.423 -123.278 538.75 -125.747C534.64 -126.489 530.446 -127.868 522.058 -130.626C510.231 -134.514 504.317 -136.458 498.765 -137.192C480.107 -139.659 461.373 -133.229 448.163 -119.824C444.232 -115.835 440.763 -110.675 433.825 -100.356L433.825 -100.356C428.913 -93.0507 426.457 -89.3981 423.676 -86.294C414.393 -75.9341 401.799 -69.1215 388.048 -67.0216C383.928 -66.3924 379.517 -66.3358 370.697 -66.2227C358.269 -66.0633 352.054 -65.9836 346.578 -64.8819C328.099 -61.1649 312.441 -48.9804 304.298 -31.9813C301.885 -26.9431 300.284 -20.9515 297.083 -8.96825C294.816 -0.48407 293.683 3.75803 292.066 7.58842C286.648 20.4247 276.931 30.9751 264.583 37.4294C260.899 39.3554 256.756 40.8362 248.469 43.798C236.788 47.9733 230.948 50.0609 226.133 52.8724C209.834 62.3913 198.965 79.0251 196.791 97.7747C196.149 103.312 196.581 109.487 197.446 121.836C198.058 130.579 198.364 134.951 198.081 139.09C197.13 153.01 191.358 166.163 181.758 176.288C178.903 179.298 175.475 182.035 168.62 187.51L168.619 187.51L168.618 187.511C158.938 195.24 154.099 199.105 150.46 203.324C138.123 217.625 133.24 236.902 137.281 255.352C138.474 260.794 140.887 266.49 145.714 277.882C149.131 285.946 150.84 289.978 151.917 293.982C155.544 307.463 154.357 321.787 148.56 334.487C146.838 338.259 144.488 341.955 139.789 349.346L139.789 349.347L139.789 349.347C133.15 359.792 129.83 365.015 127.757 370.188C120.734 387.721 122.377 407.537 132.19 423.674C135.086 428.436 139.222 433.043 147.495 442.257L147.497 442.259C153.35 448.779 156.277 452.039 158.597 455.476C166.404 467.046 169.934 480.977 168.577 494.869C168.174 498.996 167.152 503.255 165.11 511.773C162.224 523.805 160.782 529.821 160.502 535.386C159.555 554.246 167.543 572.452 182.062 584.526C186.346 588.089 191.759 591.106 202.585 597.141L202.586 597.142L202.588 597.144C210.261 601.421 214.097 603.559 217.411 606.061C228.539 614.464 236.392 626.48 239.623 640.044C240.585 644.084 241.003 648.45 241.841 657.182L241.841 657.183L241.841 657.184C243.023 669.516 243.614 675.682 245.162 681.043C250.394 699.166 263.844 713.773 281.474 720.48C286.689 722.464 292.798 723.563 305.014 725.761L305.017 725.762L305.02 725.763L305.021 725.763C313.693 727.323 318.029 728.104 321.985 729.4C335.215 733.734 346.526 742.533 353.98 754.291C356.209 757.807 358.027 761.809 361.665 769.814C366.802 781.12 369.371 786.774 372.586 791.351C383.413 806.762 400.848 816.195 419.671 816.826C425.262 817.014 431.41 816.069 443.707 814.181C452.432 812.841 456.794 812.171 460.967 812.114C474.866 811.926 488.4 816.57 499.256 825.253C502.514 827.859 505.54 831.06 511.592 837.462L511.594 837.465L511.595 837.465C520.146 846.512 524.422 851.035 528.963 854.325C544.192 865.363 563.716 868.62 581.703 863.125C587.066 861.486 592.582 858.594 603.613 852.811C611.432 848.711 615.342 846.662 619.275 845.254C632.353 840.571 646.651 840.571 659.729 845.254C663.662 846.662 667.571 848.711 675.39 852.811C686.422 858.594 691.937 861.486 697.3 863.125C715.288 868.62 734.811 865.363 750.041 854.325C754.581 851.035 758.857 846.512 767.409 837.465C773.462 831.061 776.489 827.86 779.747 825.253C790.603 816.57 804.137 811.926 818.037 812.114C822.209 812.171 826.572 812.841 835.297 814.181C847.593 816.069 853.742 817.014 859.332 816.826C878.156 816.195 895.59 806.762 906.417 791.351C909.632 786.774 912.201 781.121 917.338 769.817L917.339 769.814L917.339 769.812C920.976 761.809 922.795 757.807 925.024 754.291C932.478 742.533 943.789 733.734 957.018 729.4C960.974 728.104 965.31 727.323 973.982 725.763L973.983 725.763C986.203 723.564 992.314 722.464 997.529 720.48C1015.16 713.773 1028.61 699.166 1033.84 681.043C1035.39 675.682 1035.98 669.515 1037.16 657.182L1037.16 657.18C1038 648.449 1038.42 644.084 1039.38 640.044C1042.61 626.48 1050.46 614.464 1061.59 606.061C1064.91 603.559 1068.74 601.421 1076.41 597.144L1076.42 597.142L1076.42 597.141C1087.24 591.106 1092.66 588.089 1096.94 584.526C1111.46 572.452 1119.45 554.246 1118.5 535.386C1118.22 529.821 1116.78 523.805 1113.89 511.773L1113.89 511.772C1111.85 503.255 1110.83 498.996 1110.43 494.869C1109.07 480.977 1112.6 467.046 1120.41 455.476C1122.73 452.039 1125.65 448.778 1131.51 442.257C1139.78 433.043 1143.92 428.436 1146.81 423.674C1156.63 407.537 1158.27 387.721 1151.25 370.188C1149.17 365.015 1145.85 359.793 1139.22 349.351L1139.22 349.348L1139.21 349.346C1134.52 341.954 1132.17 338.259 1130.44 334.487C1124.65 321.787 1123.46 307.463 1127.09 293.982C1128.16 289.979 1129.87 285.948 1133.29 277.887L1133.29 277.883L1133.29 277.882C1138.12 266.49 1140.53 260.794 1141.72 255.352C1145.76 236.902 1140.88 217.625 1128.54 203.324C1124.9 199.105 1120.07 195.24 1110.38 187.511L1110.38 187.51L1110.38 187.507C1103.53 182.035 1100.1 179.298 1097.25 176.288C1087.65 166.163 1081.87 153.01 1080.92 139.09C1080.64 134.951 1080.95 130.579 1081.56 121.836C1082.42 109.487 1082.85 103.312 1082.21 97.7746C1080.04 79.0251 1069.17 62.3913 1052.87 52.8724C1048.06 50.0609 1042.22 47.9733 1030.53 43.798C1022.25 40.8362 1018.1 39.3554 1014.42 37.4294C1002.07 30.9751 992.356 20.4247 986.937 7.58842C985.321 3.75803 984.187 -0.484055 981.921 -8.96825C978.719 -20.9515 977.119 -26.9431 974.705 -31.9813C966.562 -48.9804 950.904 -61.1648 932.426 -64.8819C926.949 -65.9836 920.735 -66.0633 908.306 -66.2227C899.486 -66.3358 895.076 -66.3924 890.956 -67.0216C877.205 -69.1215 864.61 -75.9341 855.327 -86.294C852.546 -89.3981 850.09 -93.0508 845.179 -100.356C838.241 -110.675 834.772 -115.835 830.84 -119.824C817.631 -133.229 798.896 -139.659 780.239 -137.192C774.686 -136.458 768.773 -134.514 756.945 -130.626C748.557 -127.868 744.363 -126.489 740.254 -125.747C726.58 -123.278 712.474 -125.631 700.342 -132.404C696.696 -134.44 693.181 -137.102 686.15 -142.426L686.149 -142.427C676.217 -149.949 671.251 -153.71 666.227 -156.209C649.394 -164.584 629.609 -164.584 612.777 -156.209ZM541.362 -41.8858L541.439 -41.8604C543.191 -41.2844 544.156 -40.9672 545.081 -40.6936C563.929 -35.1208 584.292 -38.5173 600.311 -49.9058C601.097 -50.4647 601.904 -51.0752 603.367 -52.1833L603.369 -52.1852L603.432 -52.2327C605.613 -53.8846 606.612 -54.6404 607.526 -55.2761C626.747 -68.6448 652.256 -68.6448 671.478 -55.2761C672.392 -54.6404 673.391 -53.8846 675.572 -52.2327L675.635 -52.1852L675.636 -52.1842C677.1 -51.0756 677.906 -50.4649 678.693 -49.9058C694.712 -38.5173 715.075 -35.1208 733.923 -40.6936C734.847 -40.9669 735.811 -41.2838 737.56 -41.8588L737.565 -41.8604L737.642 -41.8858C740.233 -42.7375 741.42 -43.1269 742.482 -43.4294C765.015 -49.8478 789.163 -41.5598 803.005 -22.6563C803.657 -21.7652 804.351 -20.7343 805.866 -18.4817L805.911 -18.4144C806.927 -16.9033 807.487 -16.0707 808.044 -15.2928C819.503 0.696198 837.678 10.5276 857.331 11.3679C858.287 11.4088 859.298 11.4218 861.134 11.4453L861.214 11.4464C863.921 11.4811 865.161 11.4977 866.252 11.5551C889.676 12.7867 909.85 28.4854 916.798 50.8884C917.122 51.9318 917.44 53.1196 918.133 55.714L918.154 55.7904C918.619 57.5317 918.875 58.491 919.146 59.3983C924.79 78.2667 938.807 93.486 957.148 100.66C958.029 101.005 958.97 101.342 960.678 101.952L960.681 101.953L960.757 101.98C963.284 102.884 964.441 103.298 965.445 103.702C987.228 112.469 1001.23 133.893 1000.51 157.363C1000.48 158.445 1000.39 159.661 1000.21 162.316L1000.2 162.384L1000.2 162.394C1000.08 164.176 1000.01 165.158 999.971 166.096C999.171 185.794 1007.49 204.762 1022.53 217.51C1023.26 218.126 1024.04 218.752 1025.49 219.903C1027.57 221.566 1028.52 222.328 1029.34 223.034C1047.11 238.402 1053.39 263.227 1045.08 285.201C1044.7 286.211 1044.23 287.329 1043.19 289.772L1043.16 289.844C1042.47 291.483 1042.09 292.386 1041.75 293.258C1034.58 311.636 1036.3 332.289 1046.39 349.236C1046.87 350.04 1047.39 350.867 1048.35 352.369L1048.35 352.374L1048.39 352.437C1049.81 354.679 1050.47 355.706 1051.01 356.64C1062.82 376.946 1060.71 402.467 1045.71 420.551C1045.02 421.382 1044.21 422.29 1042.43 424.27L1042.38 424.33C1041.19 425.657 1040.53 426.389 1039.92 427.103C1027.18 442.156 1022.1 462.243 1026.13 481.547C1026.32 482.462 1026.55 483.416 1026.97 485.147L1026.99 485.226C1027.6 487.808 1027.89 488.99 1028.1 490.05C1032.67 513.088 1022.39 536.535 1002.34 548.768C1001.41 549.33 1000.35 549.927 998.011 551.228L997.946 551.264C996.367 552.145 995.497 552.629 994.687 553.113C977.765 563.21 966.438 580.54 963.981 600.091C963.864 601.026 963.769 602.009 963.598 603.793L963.598 603.801L963.591 603.874C963.336 606.534 963.218 607.751 963.072 608.829C959.911 632.084 942.585 650.901 919.669 655.967C918.608 656.201 917.393 656.421 914.74 656.898L914.67 656.91L914.65 656.914C912.859 657.236 911.871 657.414 910.941 657.61C891.682 661.671 875.363 674.367 866.691 692.036C866.271 692.892 865.858 693.801 865.107 695.453L865.076 695.522C863.959 697.98 863.447 699.105 862.953 700.087C852.411 721.025 829.943 733.181 806.649 730.55C805.558 730.427 804.327 730.239 801.64 729.826L801.568 729.815L801.556 729.813C799.738 729.534 798.736 729.38 797.783 729.263C778.268 726.863 758.734 733.566 744.804 747.442C744.124 748.12 743.432 748.852 742.177 750.179L742.171 750.186L742.118 750.242C740.245 752.223 739.387 753.13 738.593 753.905C721.832 770.262 696.662 774.461 675.499 764.431C674.496 763.956 673.387 763.376 670.967 762.107L670.898 762.071C669.264 761.214 668.364 760.742 667.494 760.319C649.822 751.724 629.181 751.724 611.509 760.319C610.64 760.742 609.74 761.214 608.105 762.071L608.037 762.107C605.616 763.376 604.508 763.956 603.505 764.431C582.342 774.461 557.172 770.262 540.411 753.905C539.617 753.13 538.759 752.223 536.886 750.242L536.832 750.185L536.825 750.177C535.571 748.851 534.88 748.12 534.2 747.442C520.27 733.566 500.736 726.863 481.221 729.263C480.266 729.38 479.262 729.534 477.437 729.815L477.364 729.826C474.677 730.239 473.446 730.427 472.355 730.55C449.061 733.181 426.593 721.025 416.051 700.087C415.557 699.105 415.045 697.98 413.928 695.522L413.895 695.448C413.145 693.799 412.732 692.891 412.313 692.036C403.641 674.367 387.322 661.671 368.063 657.61C367.13 657.414 366.138 657.235 364.335 656.911L364.264 656.898C361.611 656.421 360.396 656.201 359.335 655.967C336.419 650.901 319.093 632.084 315.932 608.829C315.786 607.751 315.668 606.533 315.413 603.874L315.406 603.795C315.235 602.01 315.14 601.026 315.023 600.091C312.566 580.54 301.238 563.21 284.316 553.113C283.507 552.63 282.638 552.145 281.061 551.266L280.993 551.228C278.658 549.927 277.589 549.33 276.667 548.768C256.616 536.535 246.329 513.088 250.906 490.05C251.116 488.99 251.399 487.808 252.018 485.226L252.037 485.148C252.452 483.417 252.681 482.463 252.873 481.546C256.909 462.243 251.82 442.156 239.079 427.103C238.474 426.388 237.817 425.655 236.622 424.325L236.573 424.27C234.795 422.29 233.981 421.382 233.292 420.551C218.295 402.467 216.18 376.946 227.995 356.64C228.538 355.706 229.19 354.679 230.615 352.437L230.656 352.372C231.612 350.868 232.139 350.04 232.617 349.236C242.707 332.289 244.419 311.636 237.258 293.258C236.918 292.387 236.536 291.485 235.843 289.848L235.841 289.846L235.81 289.772C234.775 287.329 234.302 286.211 233.92 285.201C225.609 263.227 231.897 238.402 249.666 223.034C250.483 222.328 251.436 221.566 253.519 219.903L253.576 219.857L253.579 219.855C254.982 218.734 255.754 218.117 256.471 217.51C271.509 204.762 279.833 185.794 279.033 166.096C278.995 165.158 278.926 164.177 278.802 162.396L278.802 162.394L278.796 162.316C278.61 159.661 278.526 158.445 278.493 157.363C277.776 133.893 291.776 112.469 313.558 103.702C314.563 103.298 315.72 102.884 318.247 101.98L318.32 101.954L318.325 101.952C320.033 101.342 320.975 101.005 321.856 100.66C340.197 93.486 354.214 78.2668 359.857 59.3983C360.129 58.4909 360.385 57.5314 360.85 55.7896L360.871 55.714C361.564 53.1196 361.882 51.9318 362.206 50.8883C369.154 28.4854 389.328 12.7867 412.752 11.5551C413.842 11.4977 415.082 11.4811 417.789 11.4464L417.87 11.4453C419.706 11.4218 420.717 11.4088 421.673 11.3679C441.326 10.5276 459.501 0.696213 470.96 -15.2928C471.517 -16.0706 472.077 -16.9031 473.093 -18.414L473.094 -18.4158L473.138 -18.4817C474.653 -20.7343 475.347 -21.7653 475.999 -22.6563C489.841 -41.5598 513.988 -49.8478 536.522 -43.4294C537.584 -43.1269 538.771 -42.7375 541.362 -41.8858ZM601.017 -55.4214L601.018 -55.4223L601.022 -55.425C603.171 -57.0528 604.246 -57.8672 605.242 -58.5599C625.836 -72.8835 653.168 -72.8835 673.762 -58.5599C674.758 -57.8667 675.834 -57.0516 677.987 -55.4214C679.511 -54.2671 680.273 -53.6899 681.01 -53.1659C696.028 -42.4892 715.119 -39.3049 732.789 -44.5294C733.656 -44.7859 734.568 -45.0858 736.393 -45.6857L736.395 -45.6864L736.402 -45.6887C738.953 -46.5272 740.229 -46.9469 741.386 -47.2764C765.529 -54.1532 791.401 -45.2733 806.232 -25.0195C806.943 -24.0479 807.691 -22.9364 809.185 -20.7135L809.191 -20.7046C810.246 -19.1363 810.774 -18.3508 811.296 -17.6229C822.038 -2.63316 839.077 6.58377 857.502 7.37157C858.398 7.40988 859.353 7.42215 861.262 7.44664L861.266 7.44669C863.937 7.48094 865.273 7.49808 866.462 7.56062C891.559 8.88016 913.174 25.7003 920.619 49.7034C920.972 50.8412 921.314 52.1213 921.998 54.6816L921.999 54.6881L922.004 54.7064C922.484 56.5032 922.725 57.4055 922.979 58.252C928.27 75.9412 941.41 90.2093 958.605 96.9354C959.431 97.2585 960.321 97.5767 962.101 98.2127L962.104 98.2137L962.106 98.2146L962.112 98.2169C964.6 99.106 965.845 99.5511 966.939 99.9914C990.277 109.384 1005.28 132.339 1004.51 157.485C1004.47 158.665 1004.38 159.975 1004.2 162.595L1004.2 162.609C1004.07 164.455 1004 165.381 1003.97 166.258C1003.22 184.725 1011.02 202.508 1025.12 214.459C1025.79 215.027 1026.52 215.609 1027.97 216.771L1027.98 216.774L1027.98 216.777L1027.98 216.779L1027.99 216.783C1030.04 218.42 1031.07 219.24 1031.95 220.009C1050.99 236.474 1057.73 263.073 1048.83 286.616C1048.41 287.716 1047.9 288.92 1046.88 291.325L1046.88 291.333L1046.88 291.335C1046.15 293.041 1045.79 293.894 1045.47 294.71C1038.76 311.939 1040.36 331.302 1049.82 347.19C1050.27 347.944 1050.77 348.726 1051.76 350.291L1051.77 350.299C1053.17 352.506 1053.87 353.611 1054.47 354.628C1067.13 376.384 1064.86 403.729 1048.79 423.104C1048.04 424.011 1047.16 424.988 1045.41 426.942L1045.4 426.949C1044.16 428.328 1043.54 429.018 1042.98 429.687C1031.03 443.8 1026.26 462.631 1030.05 480.728C1030.23 481.587 1030.44 482.489 1030.88 484.293C1031.49 486.841 1031.79 488.115 1032.02 489.27C1036.93 513.954 1025.9 539.075 1004.42 552.182C1003.41 552.796 1002.26 553.438 999.959 554.722C998.317 555.637 997.496 556.095 996.737 556.548C980.873 566.014 970.254 582.26 967.95 600.59C967.84 601.467 967.751 602.396 967.572 604.255C967.321 606.88 967.195 608.193 967.035 609.367C963.649 634.283 945.085 654.445 920.532 659.872C919.375 660.128 918.066 660.364 915.449 660.835C913.576 661.172 912.64 661.34 911.766 661.524C893.711 665.331 878.411 677.234 870.282 693.799C869.888 694.6 869.498 695.459 868.717 697.177C867.615 699.603 867.064 700.816 866.525 701.885C855.231 724.319 831.158 737.344 806.2 734.525C805.01 734.39 803.684 734.187 801.033 733.78L801.019 733.778C799.132 733.488 798.187 733.343 797.294 733.233C779 730.983 760.686 737.267 747.627 750.276C746.989 750.912 746.334 751.605 745.025 752.989L745.02 752.994C743.175 754.947 742.251 755.923 741.386 756.768C723.428 774.293 696.461 778.792 673.786 768.046C672.693 767.528 671.498 766.902 669.11 765.649C667.41 764.758 666.56 764.312 665.745 763.916C649.177 755.858 629.826 755.858 613.259 763.916C612.444 764.312 611.594 764.758 609.894 765.649C607.506 766.902 606.311 767.528 605.218 768.046C582.543 778.792 555.576 774.293 537.617 756.768C536.752 755.923 535.828 754.946 533.982 752.993L533.981 752.992L533.979 752.989C532.67 751.605 532.015 750.912 531.377 750.276C518.318 737.267 500.004 730.983 481.709 733.233C480.818 733.342 479.873 733.488 477.988 733.777L477.983 733.778L477.971 733.78C475.32 734.187 473.994 734.39 472.804 734.525C447.846 737.344 423.773 724.319 412.478 701.885C411.94 700.816 411.389 699.603 410.286 697.177L410.286 697.176C409.506 695.458 409.115 694.6 408.722 693.799C400.592 677.234 385.293 665.331 367.238 661.524C366.364 661.34 365.428 661.172 363.555 660.835C360.938 660.364 359.629 660.128 358.472 659.872C333.919 654.445 315.355 634.283 311.969 609.367C311.809 608.193 311.683 606.88 311.432 604.255L311.431 604.254L311.431 604.251C311.253 602.395 311.164 601.466 311.054 600.59C308.75 582.26 298.131 566.014 282.267 556.548C281.508 556.095 280.687 555.637 279.045 554.722C276.741 553.438 275.59 552.796 274.584 552.182C253.1 539.075 242.079 513.954 246.983 489.27C247.212 488.116 247.517 486.842 248.128 484.295L248.129 484.293C248.561 482.489 248.778 481.587 248.957 480.728C252.741 462.631 247.97 443.8 236.026 429.687C235.459 429.017 234.838 428.325 233.596 426.942C231.842 424.988 230.965 424.011 230.213 423.104C214.145 403.729 211.878 376.384 224.537 354.628C225.13 353.61 225.833 352.504 227.239 350.291C228.234 348.726 228.732 347.944 229.18 347.19C238.64 331.302 240.245 311.939 233.531 294.71C233.212 293.893 232.851 293.04 232.127 291.333L232.127 291.331C231.106 288.922 230.595 287.717 230.179 286.616C221.274 263.073 228.011 236.474 247.05 220.009C247.94 219.239 248.967 218.418 251.023 216.777C252.483 215.611 253.213 215.028 253.884 214.459C267.983 202.508 275.786 184.725 275.036 166.258C275.001 165.379 274.936 164.451 274.806 162.595L274.806 162.594C274.622 159.975 274.531 158.665 274.495 157.485C273.727 132.339 288.727 109.384 312.065 99.9914C313.16 99.5506 314.407 99.1049 316.9 98.2137C318.682 97.5771 319.572 97.2587 320.399 96.9353C337.594 90.2093 350.734 75.9412 356.025 58.2521C356.279 57.402 356.522 56.4957 357.006 54.6839L357.006 54.682L357.006 54.6816C357.69 52.1213 358.032 50.8411 358.385 49.7033C365.83 25.7003 387.445 8.88016 412.542 7.56062C413.731 7.49808 415.067 7.48094 417.738 7.44669L417.742 7.44664C419.651 7.42215 420.606 7.40988 421.502 7.37157C439.927 6.58377 456.966 -2.63315 467.708 -17.6228C468.231 -18.3521 468.76 -19.1391 469.818 -20.7131L469.819 -20.7135C471.313 -22.9364 472.06 -24.0479 472.772 -25.0195C487.603 -45.2733 513.475 -54.1532 537.618 -47.2764C538.776 -46.9465 540.054 -46.5262 542.611 -45.6857C544.436 -45.0858 545.348 -44.7859 546.215 -44.5294C563.885 -39.3049 582.976 -42.4892 597.993 -53.1659C598.73 -53.6899 599.493 -54.2671 601.017 -55.4214Z" fill="url(#paint0_linear_486_9944)"/>
<rect y="-4.69226" width="1279" height="359.438" fill="url(#paint1_linear_486_9944)"/>
<rect width="1279" height="359.438" transform="matrix(1 0 0 -1 0 714.183)" fill="url(#paint2_linear_486_9944)"/>
<g opacity="0.7">
<g opacity="0.7" filter="url(#filter0_f_486_9944)">
<ellipse cx="1077.07" cy="589.682" rx="201.93" ry="108.318" fill="#7534FF"/>
</g>
<g opacity="0.8" filter="url(#filter1_f_486_9944)">
<ellipse cx="739.63" cy="615.773" rx="98.7411" ry="53.1314" fill="#F249C8"/>
</g>
<g opacity="0.8" filter="url(#filter2_f_486_9944)">
<ellipse cx="391.813" cy="499.706" rx="390.813" ry="85.706" fill="#E64545"/>
</g>
<g opacity="0.8" filter="url(#filter3_f_486_9944)">
<ellipse cx="142.737" cy="589.682" rx="123.945" ry="79.539" fill="#0B63E5"/>
</g>
<g opacity="0.8" filter="url(#filter4_f_486_9944)">
<ellipse cx="261.345" cy="589.682" rx="45.071" ry="43.8018" fill="#9DC1F5"/>
</g>
<g opacity="0.8" filter="url(#filter5_f_486_9944)">
<ellipse cx="467.13" cy="606.918" rx="142.329" ry="35.1047" fill="#FFC759"/>
</g>
</g>
<g filter="url(#filter6_d_486_9944)">
<rect x="185.975" y="265.248" width="64.8527" height="64.8527" rx="32.4264" fill="white" shape-rendering="crispEdges"/>
<g clip-path="url(#clip0_486_9944)">
<path d="M212.978 312.874C215.752 312.874 218.003 310.605 218.003 307.808V302.741H212.978C210.204 302.741 207.953 305.011 207.953 307.808C207.953 310.605 210.204 312.874 212.978 312.874Z" fill="#0ACF83"/>
<path d="M207.953 297.674C207.953 294.878 210.204 292.608 212.978 292.608H218.003V302.741H212.978C210.204 302.741 207.953 300.471 207.953 297.674Z" fill="#A259FF"/>
<path d="M207.955 287.541C207.955 284.744 210.206 282.474 212.979 282.474H218.004V292.608H212.979C210.206 292.608 207.955 290.338 207.955 287.541Z" fill="#F24E1E"/>
<path d="M218.003 282.474H223.028C225.801 282.474 228.053 284.744 228.053 287.541C228.053 290.338 225.801 292.608 223.028 292.608H218.003V282.474Z" fill="#FF7262"/>
<path d="M228.053 297.674C228.053 300.471 225.801 302.741 223.028 302.741C220.254 302.741 218.003 300.471 218.003 297.674C218.003 294.878 220.254 292.608 223.028 292.608C225.801 292.608 228.053 294.878 228.053 297.674Z" fill="#1ABCFE"/>
</g>
</g>
<g filter="url(#filter7_d_486_9944)">
<rect x="98.54" y="157.546" width="55.5881" height="55.5881" rx="27.794" fill="white" shape-rendering="crispEdges"/>
<g clip-path="url(#clip1_486_9944)">
<path d="M129.66 174.94L126.334 180.667L123.008 174.94H111.934L126.334 199.74L140.734 174.94H129.66Z" fill="#4DBA87"/>
<path d="M129.66 174.94L126.334 180.667L123.009 174.94H117.694L126.334 189.82L134.974 174.94H129.66Z" fill="#435466"/>
</g>
</g>
<g filter="url(#filter8_d_486_9944)">
<rect x="14" y="51.5814" width="55.5881" height="55.5881" rx="27.794" fill="white" shape-rendering="crispEdges"/>
<g clip-path="url(#clip2_486_9944)">
<path d="M49.8048 91.7255H34.0463C31.6571 91.7255 29.7256 89.777 29.7256 87.3666V72.0844C29.7256 69.6741 31.6571 67.7255 34.0463 67.7255H49.8048C52.1941 67.7255 54.1256 69.6741 54.1256 72.0844V87.3666C54.1256 89.777 52.1941 91.7255 49.8048 91.7255Z" fill="#FF26BE"/>
<path d="M49.418 90.6995H34.4324C32.3994 90.6995 30.7422 89.0276 30.7422 86.9767V72.4743C30.7422 70.4233 32.3994 68.7514 34.4324 68.7514H49.4082C51.4519 68.7514 53.0985 70.4233 53.0985 72.4743V86.9668C53.1082 89.0276 51.451 90.6995 49.418 90.6995Z" fill="#2E001F"/>
<path d="M39.3731 78.956L42.2201 84.4738C42.2709 84.5555 42.2406 84.6382 42.1587 84.6382H40.3892C40.2769 84.6382 40.2262 84.6077 40.1754 84.5053C39.5244 83.1515 38.8637 81.7976 38.1824 80.3414H38.1619C37.5519 81.7159 36.8804 83.1623 36.2304 84.5161C36.1797 84.5979 36.1289 84.6294 36.0469 84.6294H34.3711C34.2696 84.6294 34.2589 84.5476 34.3106 84.4856L37.0961 79.1313L34.4024 73.7159C34.3409 73.6342 34.4024 73.5721 34.4629 73.5721H36.2119C36.3134 73.5721 36.3544 73.5928 36.3944 73.6854C37.0346 75.0392 37.6856 76.4344 38.2956 77.7981H38.3161C38.9056 76.4443 39.5566 75.0392 40.1871 73.6952C40.2379 73.6135 40.2681 73.5623 40.3706 73.5623H42.0074C42.0884 73.5623 42.1196 73.6243 42.0689 73.706L39.3731 78.956ZM42.7189 80.6279C42.7189 78.2382 44.2951 76.3714 46.7956 76.3714C47.0094 76.3714 47.1206 76.3714 47.3246 76.3921V73.6745C47.3246 73.6125 47.3754 73.5721 47.4261 73.5721H49.0326C49.1136 73.5721 49.1341 73.6027 49.1341 73.6539V83.0697C49.1341 83.3464 49.1341 83.695 49.1849 84.075C49.1849 84.1371 49.1644 84.1567 49.1039 84.1883C48.2499 84.5988 47.3549 84.783 46.5009 84.783C44.2941 84.7918 42.7179 83.4183 42.7189 80.6279ZM47.3236 78.0029C47.1811 77.9409 46.9781 77.9005 46.7341 77.9005C45.4527 77.9005 44.5586 78.895 44.5586 80.5471C44.5586 82.4347 45.4741 83.1938 46.6229 83.1938C46.8669 83.1938 47.1314 83.1633 47.3246 83.0806V78.0029H47.3236Z" fill="#FFD9F2"/>
</g>
</g>
<g filter="url(#filter9_d_486_9944)">
<rect x="182.501" y="77.6383" width="41.691" height="41.691" rx="20.8455" fill="white" shape-rendering="crispEdges"/>
<path opacity="0.2" d="M195.847 94.7339L203.347 99.1089L210.847 94.7339L203.347 90.3589L195.847 94.7339Z" fill="#F249C8"/>
<path d="M195.847 102.234L203.347 106.609L210.847 102.234" stroke="#F249C8" stroke-width="1.67237" stroke-linecap="round" stroke-linejoin="round"/>
<path d="M195.847 98.4838L203.347 102.859L210.847 98.4838" stroke="#F249C8" stroke-width="1.67237" stroke-linecap="round" stroke-linejoin="round"/>
<path d="M195.847 94.7339L203.347 99.1089L210.847 94.7339L203.347 90.3589L195.847 94.7339Z" stroke="#F249C8" stroke-width="1.67237" stroke-linecap="round" stroke-linejoin="round"/>
</g>
<g filter="url(#filter10_d_486_9944)">
<rect x="55.6909" y="315.625" width="41.691" height="41.691" rx="20.8455" fill="white" shape-rendering="crispEdges"/>
<path opacity="0.2" d="M67.8742 343.58C67.9002 343.689 67.9483 343.793 68.0154 343.884C68.0825 343.975 68.1673 344.051 68.2647 344.108C68.3621 344.166 68.47 344.202 68.5821 344.217C68.6941 344.231 68.8079 344.223 68.9166 344.192C73.9012 342.816 79.1656 342.815 84.1505 344.191C84.2591 344.221 84.3729 344.23 84.4849 344.215C84.5969 344.201 84.7048 344.164 84.8022 344.107C84.8995 344.05 84.9843 343.973 85.0514 343.882C85.1185 343.792 85.1666 343.688 85.1927 343.578L87.8569 332.257C87.8925 332.105 87.8852 331.947 87.8356 331.799C87.7861 331.651 87.6963 331.521 87.5764 331.421C87.4565 331.322 87.3112 331.258 87.1569 331.237C87.0027 331.216 86.8456 331.238 86.7033 331.301L81.4161 333.651C81.2252 333.736 81.0094 333.746 80.8113 333.68C80.6132 333.614 80.447 333.476 80.3456 333.293L77.2671 327.752C77.1947 327.621 77.0887 327.513 76.9602 327.437C76.8317 327.361 76.6853 327.322 76.5361 327.322C76.387 327.322 76.2406 327.361 76.1121 327.437C75.9836 327.513 75.8776 327.621 75.8052 327.752L72.7267 333.293C72.6253 333.476 72.4591 333.614 72.261 333.68C72.0628 333.746 71.8471 333.736 71.6562 333.651L66.3682 331.301C66.2259 331.237 66.0688 331.215 65.9146 331.236C65.7604 331.258 65.6152 331.322 65.4953 331.421C65.3754 331.52 65.2855 331.651 65.236 331.798C65.1864 331.946 65.1789 332.104 65.2145 332.256L67.8742 343.58Z" fill="#E64545"/>
<path d="M67.8742 343.58C67.9002 343.689 67.9483 343.793 68.0154 343.884C68.0825 343.975 68.1673 344.051 68.2647 344.108C68.3621 344.166 68.47 344.202 68.5821 344.217C68.6941 344.231 68.8079 344.223 68.9166 344.192C73.9012 342.816 79.1656 342.815 84.1505 344.191C84.2591 344.221 84.3729 344.23 84.4849 344.215C84.5969 344.201 84.7048 344.164 84.8022 344.107C84.8995 344.05 84.9843 343.973 85.0514 343.882C85.1185 343.792 85.1666 343.688 85.1927 343.578L87.8569 332.257C87.8925 332.105 87.8852 331.947 87.8356 331.799C87.7861 331.651 87.6963 331.521 87.5764 331.421C87.4565 331.322 87.3112 331.258 87.157 331.237C87.0027 331.216 86.8456 331.238 86.7033 331.301L81.4161 333.651C81.2252 333.736 81.0094 333.746 80.8113 333.68C80.6132 333.614 80.447 333.476 80.3456 333.293L77.2671 327.752C77.1947 327.621 77.0887 327.513 76.9602 327.437C76.8317 327.361 76.6853 327.322 76.5361 327.322C76.387 327.322 76.2406 327.361 76.1121 327.437C75.9836 327.513 75.8776 327.621 75.8052 327.752L72.7267 333.293C72.6253 333.476 72.4591 333.614 72.261 333.68C72.0628 333.746 71.8471 333.736 71.6562 333.651L66.3682 331.301C66.2259 331.237 66.0688 331.215 65.9146 331.236C65.7604 331.258 65.6152 331.322 65.4953 331.421C65.3754 331.52 65.2855 331.651 65.236 331.798C65.1864 331.946 65.1789 332.104 65.2145 332.256L67.8742 343.58Z" stroke="#E64545" stroke-width="1.67237" stroke-linecap="round" stroke-linejoin="round"/>
<path d="M73.1914 339.99C75.4151 339.756 77.6572 339.756 79.8809 339.99" stroke="#E64545" stroke-width="1.67237" stroke-linecap="round" stroke-linejoin="round"/>
</g>
<g filter="url(#filter11_d_486_9944)">
<rect x="98.54" y="422.168" width="41.691" height="41.691" rx="20.8455" fill="white" shape-rendering="crispEdges"/>
<path opacity="0.2" d="M112.369 436.801L116.917 448.929C116.962 449.049 117.042 449.152 117.147 449.225C117.253 449.297 117.377 449.336 117.505 449.335C117.633 449.334 117.757 449.295 117.862 449.221C117.966 449.147 118.046 449.044 118.089 448.924L119.911 443.913C119.943 443.827 119.992 443.749 120.057 443.685C120.121 443.62 120.199 443.571 120.285 443.539L125.296 441.717C125.416 441.674 125.52 441.594 125.593 441.49C125.667 441.385 125.706 441.261 125.707 441.133C125.708 441.005 125.669 440.88 125.597 440.775C125.524 440.67 125.421 440.59 125.301 440.545L113.174 435.997C113.061 435.955 112.939 435.946 112.822 435.971C112.705 435.997 112.597 436.055 112.512 436.14C112.427 436.225 112.369 436.332 112.343 436.45C112.318 436.567 112.327 436.689 112.369 436.801Z" fill="#FFC759"/>
<path d="M112.369 436.801L116.917 448.929C116.962 449.049 117.042 449.152 117.147 449.225C117.253 449.297 117.377 449.336 117.505 449.335C117.633 449.334 117.757 449.295 117.862 449.221C117.966 449.147 118.046 449.044 118.089 448.924L119.911 443.913C119.943 443.827 119.992 443.749 120.057 443.685C120.121 443.62 120.199 443.571 120.285 443.539L125.296 441.717C125.416 441.674 125.52 441.594 125.593 441.49C125.667 441.385 125.706 441.261 125.707 441.133C125.708 441.005 125.669 440.88 125.597 440.775C125.524 440.67 125.421 440.59 125.301 440.545L113.174 435.997C113.061 435.955 112.939 435.946 112.822 435.971C112.705 435.997 112.597 436.055 112.512 436.14C112.427 436.225 112.369 436.332 112.343 436.45C112.318 436.567 112.327 436.689 112.369 436.801Z" stroke="#FFC759" stroke-width="1.67237" stroke-linecap="round" stroke-linejoin="round"/>
<path d="M120.057 443.685L125.636 449.264" stroke="#FFC759" stroke-width="1.67237" stroke-linecap="round" stroke-linejoin="round"/>
</g>
<g filter="url(#filter12_d_486_9944)">
<rect x="1180" y="437" width="55" height="55" rx="27.5" fill="white" shape-rendering="crispEdges"/>
<path d="M1200.19 459.929L1194.7 464.5L1200.19 469.071" stroke="#0B63E5" stroke-width="1.82857" stroke-linecap="round" stroke-linejoin="round"/>
<path d="M1214.81 459.929L1220.3 464.5L1214.81 469.071" stroke="#0B63E5" stroke-width="1.82857" stroke-linecap="round" stroke-linejoin="round"/>
<path d="M1211.16 454.443L1203.84 474.557" stroke="#0B63E5" stroke-width="1.82857" stroke-linecap="round" stroke-linejoin="round"/>
</g>
<g filter="url(#filter13_d_486_9944)">
<rect x="1096" y="287" width="55" height="54" rx="27" fill="white" shape-rendering="crispEdges"/>
<path opacity="0.2" d="M1112.66 307.899C1112.57 308.04 1112.53 308.2 1112.53 308.363V319.637C1112.53 319.799 1112.57 319.958 1112.65 320.098C1112.74 320.238 1112.85 320.354 1112.99 320.434L1123.05 326.091C1123.19 326.168 1123.34 326.208 1123.5 326.208L1123.5 326.208L1123.61 314L1112.66 307.899L1112.66 307.899Z" fill="#7534FF"/>
<path d="M1134.47 319.637V308.363C1134.47 308.201 1134.43 308.042 1134.35 307.902C1134.26 307.762 1134.15 307.646 1134.01 307.567L1123.95 301.909C1123.81 301.832 1123.66 301.792 1123.5 301.792C1123.34 301.792 1123.19 301.832 1123.05 301.909L1112.99 307.567C1112.85 307.646 1112.74 307.762 1112.65 307.902C1112.57 308.042 1112.53 308.201 1112.53 308.363V319.637C1112.53 319.799 1112.57 319.958 1112.65 320.098C1112.74 320.238 1112.85 320.354 1112.99 320.434L1123.05 326.091C1123.19 326.168 1123.34 326.208 1123.5 326.208C1123.66 326.208 1123.81 326.168 1123.95 326.091L1134.01 320.434C1134.15 320.354 1134.26 320.238 1134.35 320.098C1134.43 319.958 1134.47 319.799 1134.47 319.637Z" stroke="#7534FF" stroke-width="1.82857" stroke-linecap="round" stroke-linejoin="round"/>
<path d="M1129.1 316.801V310.858L1118.01 304.743" stroke="#7534FF" stroke-width="1.82857" stroke-linecap="round" stroke-linejoin="round"/>
<path d="M1134.35 307.9L1123.61 314L1112.66 307.899" stroke="#7534FF" stroke-width="1.82857" stroke-linecap="round" stroke-linejoin="round"/>
<path d="M1123.61 314L1123.5 326.208" stroke="#7534FF" stroke-width="1.82857" stroke-linecap="round" stroke-linejoin="round"/>
</g>
<g filter="url(#filter14_d_486_9944)">
<rect x="1213" y="570" width="55" height="55" rx="27.5" fill="white" shape-rendering="crispEdges"/>
<path opacity="0.2" d="M1232.27 589.271V595.568C1232.27 600.105 1235.9 603.866 1240.44 603.9C1241.52 603.908 1242.6 603.701 1243.61 603.291C1244.61 602.882 1245.53 602.277 1246.3 601.512C1247.07 600.747 1247.68 599.837 1248.1 598.835C1248.51 597.832 1248.73 596.757 1248.73 595.671V589.271C1248.73 589.029 1248.63 588.796 1248.46 588.625C1248.29 588.453 1248.06 588.357 1247.81 588.357H1233.19C1232.94 588.357 1232.71 588.453 1232.54 588.625C1232.37 588.796 1232.27 589.029 1232.27 589.271Z" fill="#FF8800"/>
<path d="M1232.27 589.271V595.568C1232.27 600.105 1235.9 603.866 1240.44 603.9C1241.52 603.908 1242.6 603.701 1243.61 603.291C1244.61 602.882 1245.53 602.277 1246.3 601.512C1247.07 600.747 1247.68 599.837 1248.1 598.835C1248.51 597.832 1248.73 596.757 1248.73 595.671V589.271C1248.73 589.029 1248.63 588.796 1248.46 588.625C1248.29 588.453 1248.06 588.357 1247.81 588.357H1233.19C1232.94 588.357 1232.71 588.453 1232.54 588.625C1232.37 588.796 1232.27 589.029 1232.27 589.271Z" stroke="#FF8800" stroke-width="1.82857" stroke-linecap="round" stroke-linejoin="round"/>
<path d="M1236.84 608.471H1244.16" stroke="#FF8800" stroke-width="1.82857" stroke-linecap="round" stroke-linejoin="round"/>
<path d="M1240.5 603.9V608.471" stroke="#FF8800" stroke-width="1.82857" stroke-linecap="round" stroke-linejoin="round"/>
<path d="M1248.52 597.5H1249.64C1250.61 597.5 1251.54 597.115 1252.23 596.429C1252.91 595.743 1253.3 594.813 1253.3 593.843V592.014C1253.3 591.772 1253.2 591.539 1253.03 591.368C1252.86 591.196 1252.63 591.1 1252.39 591.1H1248.73" stroke="#FF8800" stroke-width="1.82857" stroke-linecap="round" stroke-linejoin="round"/>
<path d="M1232.5 597.5H1231.34C1230.37 597.5 1229.44 597.115 1228.76 596.429C1228.07 595.743 1227.69 594.813 1227.69 593.843V592.014C1227.69 591.772 1227.78 591.539 1227.95 591.368C1228.13 591.196 1228.36 591.1 1228.6 591.1H1232.26" stroke="#FF8800" stroke-width="1.82857" stroke-linecap="round" stroke-linejoin="round"/>
</g>
<g filter="url(#filter15_d_486_9944)">
<rect x="1066" y="456" width="86" height="86" rx="43" fill="white" shape-rendering="crispEdges"/>
<path fill-rule="evenodd" clip-rule="evenodd" d="M1096.31 504.8C1096.31 507.353 1094.25 509.413 1091.7 509.413C1089.15 509.413 1087.09 507.346 1087.09 504.8C1087.09 502.254 1089.15 500.186 1091.7 500.186H1096.31V504.8ZM1098.61 504.8C1098.61 502.247 1100.67 500.186 1103.22 500.186C1105.78 500.186 1107.83 502.247 1107.83 504.8V516.33C1107.83 518.882 1105.78 520.943 1103.22 520.943C1100.67 520.943 1098.61 518.882 1098.61 516.33V504.8Z" fill="#E01E5A"/>
<path fill-rule="evenodd" clip-rule="evenodd" d="M1103.22 486.284C1100.67 486.284 1098.61 484.223 1098.61 481.67C1098.61 479.118 1100.67 477.057 1103.22 477.057C1105.77 477.057 1107.83 479.118 1107.83 481.67V486.284H1103.22ZM1103.22 488.622C1105.77 488.622 1107.83 490.682 1107.83 493.235C1107.83 495.788 1105.77 497.848 1103.22 497.848H1091.67C1089.12 497.848 1087.06 495.781 1087.06 493.235C1087.06 490.689 1089.12 488.622 1091.67 488.622H1103.22Z" fill="#36C5F0"/>
<path fill-rule="evenodd" clip-rule="evenodd" d="M1121.69 493.235C1121.69 490.682 1123.75 488.622 1126.3 488.622C1128.85 488.622 1130.91 490.682 1130.91 493.235C1130.91 495.788 1128.85 497.848 1126.3 497.848H1121.69V493.235ZM1119.39 493.235C1119.39 495.788 1117.33 497.848 1114.78 497.848C1112.23 497.848 1110.17 495.788 1110.17 493.235V481.67C1110.17 479.118 1112.23 477.057 1114.78 477.057C1117.33 477.057 1119.39 479.118 1119.39 481.67V493.235Z" fill="#2EB67D"/>
<path fill-rule="evenodd" clip-rule="evenodd" d="M1114.78 511.716C1117.33 511.716 1119.39 513.777 1119.39 516.33C1119.39 518.882 1117.33 520.943 1114.78 520.943C1112.23 520.943 1110.17 518.882 1110.17 516.33V511.716H1114.78ZM1114.78 509.413C1112.23 509.413 1110.17 507.353 1110.17 504.8C1110.17 502.247 1112.23 500.186 1114.78 500.186H1126.33C1128.88 500.186 1130.94 502.247 1130.94 504.8C1130.94 507.353 1128.88 509.413 1126.33 509.413H1114.78Z" fill="#ECB22E"/>
</g>
<g filter="url(#filter16_d_486_9944)">
<rect x="1177" y="325" width="85" height="85" rx="42.5" fill="white" shape-rendering="crispEdges"/>
<path d="M1213.61 346.935C1206.89 347.432 1201.18 347.889 1200.91 347.943C1200.16 348.077 1199.48 348.587 1199.16 349.259L1198.87 349.851L1198.9 363.941L1198.94 378.031L1199.37 378.905C1199.61 379.388 1201.25 381.645 1203.04 383.968C1206.57 388.548 1206.83 388.804 1208.17 388.938C1208.56 388.978 1211.49 388.844 1214.66 388.656C1217.84 388.455 1222.94 388.146 1226.01 387.972C1239.09 387.177 1238.42 387.244 1239.17 386.6C1240.11 385.821 1240.04 387.097 1240.08 369.971C1240.11 355.451 1240.09 354.498 1239.88 354.054C1239.63 353.557 1239.17 353.208 1233.2 349.017C1229.22 346.223 1228.93 346.076 1227.15 346.048C1226.41 346.022 1220.31 346.425 1213.61 346.935ZM1228.7 348.775C1229.27 349.03 1233.39 351.904 1234 352.456C1234.16 352.617 1234.21 352.751 1234.13 352.832C1233.94 352.993 1208.42 354.511 1207.68 354.403C1207.35 354.35 1206.85 354.149 1206.57 353.96C1205.4 353.168 1202.5 350.79 1202.5 350.616C1202.5 350.159 1202.41 350.159 1213.78 349.34C1215.96 349.192 1219.53 348.924 1221.71 348.749C1226.42 348.372 1227.83 348.386 1228.7 348.775ZM1236.82 356.123C1237.01 356.31 1237.17 356.673 1237.22 357.022C1237.26 357.345 1237.29 363.362 1237.26 370.374C1237.22 382.409 1237.21 383.161 1236.98 383.51C1236.84 383.725 1236.58 383.954 1236.37 384.021C1235.81 384.249 1209.07 385.767 1208.52 385.606C1208.26 385.539 1207.91 385.324 1207.72 385.136L1207.4 384.787L1207.36 371.812C1207.33 362.705 1207.36 358.675 1207.47 358.313C1207.55 358.044 1207.75 357.721 1207.93 357.614C1208.17 357.453 1209.75 357.319 1215.21 356.997C1219.04 356.782 1224.96 356.419 1228.36 356.218C1236.44 355.72 1236.42 355.72 1236.82 356.123Z" fill="black"/>
<path d="M1229.63 360.569C1228.18 360.663 1226.89 360.797 1226.74 360.878C1226.3 361.106 1226.03 361.483 1225.98 361.912C1225.94 362.356 1226.07 362.409 1227.52 362.584L1228.15 362.665V368.4C1228.15 371.812 1228.1 374.069 1228.03 374.001C1227.97 373.921 1226.06 371.02 1223.79 367.554C1221.52 364.076 1219.64 361.214 1219.61 361.188C1219.58 361.161 1218.11 361.241 1216.33 361.363C1214.16 361.511 1212.96 361.645 1212.72 361.779C1212.33 361.98 1211.9 362.692 1211.9 363.163C1211.9 363.445 1212.41 363.593 1213.49 363.593H1214.05V380.087L1213.14 380.369C1212.42 380.584 1212.18 380.718 1212.06 380.986C1211.85 381.443 1211.86 381.86 1212.08 381.86C1212.16 381.86 1213.67 381.765 1215.42 381.658C1218.87 381.457 1219.26 381.363 1219.62 380.651C1219.73 380.436 1219.83 380.207 1219.83 380.14C1219.83 380.087 1219.36 379.925 1218.79 379.791C1218.21 379.657 1217.64 379.523 1217.51 379.496C1217.29 379.428 1217.27 379.012 1217.27 373.236V367.044L1221.36 373.451C1225.64 380.167 1226.18 380.933 1226.84 381.268C1227.66 381.698 1229.74 381.403 1230.79 380.718L1231.11 380.517L1231.14 371.356L1231.18 362.182L1231.89 362.048C1232.73 361.887 1233.12 361.498 1233.12 360.826C1233.12 360.396 1233.1 360.369 1232.69 360.383C1232.45 360.394 1231.07 360.474 1229.63 360.569Z" fill="black"/>
</g>
<defs>
<filter id="filter0_f_486_9944" x="490.14" y="96.363" width="1173.86" height="986.637" filterUnits="userSpaceOnUse" color-interpolation-filters="sRGB">
<feFlood flood-opacity="0" result="BackgroundImageFix"/>
<feBlend mode="normal" in="SourceGraphic" in2="BackgroundImageFix" result="shape"/>
<feGaussianBlur stdDeviation="192.5" result="effect1_foregroundBlur_486_9944"/>
</filter>
<filter id="filter1_f_486_9944" x="255.889" y="177.641" width="967.482" height="876.263" filterUnits="userSpaceOnUse" color-interpolation-filters="sRGB">
<feFlood flood-opacity="0" result="BackgroundImageFix"/>
<feBlend mode="normal" in="SourceGraphic" in2="BackgroundImageFix" result="shape"/>
<feGaussianBlur stdDeviation="192.5" result="effect1_foregroundBlur_486_9944"/>
</filter>
<filter id="filter2_f_486_9944" x="-384" y="29" width="1551.63" height="941.412" filterUnits="userSpaceOnUse" color-interpolation-filters="sRGB">
<feFlood flood-opacity="0" result="BackgroundImageFix"/>
<feBlend mode="normal" in="SourceGraphic" in2="BackgroundImageFix" result="shape"/>
<feGaussianBlur stdDeviation="192.5" result="effect1_foregroundBlur_486_9944"/>
</filter>
<filter id="filter3_f_486_9944" x="-366.208" y="125.143" width="1017.89" height="929.078" filterUnits="userSpaceOnUse" color-interpolation-filters="sRGB">
<feFlood flood-opacity="0" result="BackgroundImageFix"/>
<feBlend mode="normal" in="SourceGraphic" in2="BackgroundImageFix" result="shape"/>
<feGaussianBlur stdDeviation="192.5" result="effect1_foregroundBlur_486_9944"/>
</filter>
<filter id="filter4_f_486_9944" x="-168.726" y="160.88" width="860.142" height="857.604" filterUnits="userSpaceOnUse" color-interpolation-filters="sRGB">
<feFlood flood-opacity="0" result="BackgroundImageFix"/>
<feBlend mode="normal" in="SourceGraphic" in2="BackgroundImageFix" result="shape"/>
<feGaussianBlur stdDeviation="192.5" result="effect1_foregroundBlur_486_9944"/>
</filter>
<filter id="filter5_f_486_9944" x="-60.1997" y="186.813" width="1054.66" height="840.209" filterUnits="userSpaceOnUse" color-interpolation-filters="sRGB">
<feFlood flood-opacity="0" result="BackgroundImageFix"/>
<feBlend mode="normal" in="SourceGraphic" in2="BackgroundImageFix" result="shape"/>
<feGaussianBlur stdDeviation="192.5" result="effect1_foregroundBlur_486_9944"/>
</filter>
<filter id="filter6_d_486_9944" x="145.838" y="225.111" width="145.126" height="145.127" filterUnits="userSpaceOnUse" color-interpolation-filters="sRGB">
<feFlood flood-opacity="0" result="BackgroundImageFix"/>
<feColorMatrix in="SourceAlpha" type="matrix" values="0 0 0 0 0 0 0 0 0 0 0 0 0 0 0 0 0 0 127 0" result="hardAlpha"/>
<feOffset/>
<feGaussianBlur stdDeviation="20.0685"/>
<feComposite in2="hardAlpha" operator="out"/>
<feColorMatrix type="matrix" values="0 0 0 0 0.0235294 0 0 0 0 0.109804 0 0 0 0 0.239216 0 0 0 0.1 0"/>
<feBlend mode="normal" in2="BackgroundImageFix" result="effect1_dropShadow_486_9944"/>
<feBlend mode="normal" in="SourceGraphic" in2="effect1_dropShadow_486_9944" result="shape"/>
</filter>
<filter id="filter7_d_486_9944" x="58.4031" y="117.409" width="135.862" height="135.862" filterUnits="userSpaceOnUse" color-interpolation-filters="sRGB">
<feFlood flood-opacity="0" result="BackgroundImageFix"/>
<feColorMatrix in="SourceAlpha" type="matrix" values="0 0 0 0 0 0 0 0 0 0 0 0 0 0 0 0 0 0 127 0" result="hardAlpha"/>
<feOffset/>
<feGaussianBlur stdDeviation="20.0685"/>
<feComposite in2="hardAlpha" operator="out"/>
<feColorMatrix type="matrix" values="0 0 0 0 0.0235294 0 0 0 0 0.109804 0 0 0 0 0.239216 0 0 0 0.1 0"/>
<feBlend mode="normal" in2="BackgroundImageFix" result="effect1_dropShadow_486_9944"/>
<feBlend mode="normal" in="SourceGraphic" in2="effect1_dropShadow_486_9944" result="shape"/>
</filter>
<filter id="filter8_d_486_9944" x="-26.1369" y="11.4445" width="135.862" height="135.862" filterUnits="userSpaceOnUse" color-interpolation-filters="sRGB">
<feFlood flood-opacity="0" result="BackgroundImageFix"/>
<feColorMatrix in="SourceAlpha" type="matrix" values="0 0 0 0 0 0 0 0 0 0 0 0 0 0 0 0 0 0 127 0" result="hardAlpha"/>
<feOffset/>
<feGaussianBlur stdDeviation="20.0685"/>
<feComposite in2="hardAlpha" operator="out"/>
<feColorMatrix type="matrix" values="0 0 0 0 0.0235294 0 0 0 0 0.109804 0 0 0 0 0.239216 0 0 0 0.1 0"/>
<feBlend mode="normal" in2="BackgroundImageFix" result="effect1_dropShadow_486_9944"/>
<feBlend mode="normal" in="SourceGraphic" in2="effect1_dropShadow_486_9944" result="shape"/>
</filter>
<filter id="filter9_d_486_9944" x="142.365" y="37.5014" width="121.965" height="121.965" filterUnits="userSpaceOnUse" color-interpolation-filters="sRGB">
<feFlood flood-opacity="0" result="BackgroundImageFix"/>
<feColorMatrix in="SourceAlpha" type="matrix" values="0 0 0 0 0 0 0 0 0 0 0 0 0 0 0 0 0 0 127 0" result="hardAlpha"/>
<feOffset/>
<feGaussianBlur stdDeviation="20.0685"/>
<feComposite in2="hardAlpha" operator="out"/>
<feColorMatrix type="matrix" values="0 0 0 0 0.0235294 0 0 0 0 0.109804 0 0 0 0 0.239216 0 0 0 0.1 0"/>
<feBlend mode="normal" in2="BackgroundImageFix" result="effect1_dropShadow_486_9944"/>
<feBlend mode="normal" in="SourceGraphic" in2="effect1_dropShadow_486_9944" result="shape"/>
</filter>
<filter id="filter10_d_486_9944" x="15.554" y="275.488" width="121.965" height="121.965" filterUnits="userSpaceOnUse" color-interpolation-filters="sRGB">
<feFlood flood-opacity="0" result="BackgroundImageFix"/>
<feColorMatrix in="SourceAlpha" type="matrix" values="0 0 0 0 0 0 0 0 0 0 0 0 0 0 0 0 0 0 127 0" result="hardAlpha"/>
<feOffset/>
<feGaussianBlur stdDeviation="20.0685"/>
<feComposite in2="hardAlpha" operator="out"/>
<feColorMatrix type="matrix" values="0 0 0 0 0.0235294 0 0 0 0 0.109804 0 0 0 0 0.239216 0 0 0 0.1 0"/>
<feBlend mode="normal" in2="BackgroundImageFix" result="effect1_dropShadow_486_9944"/>
<feBlend mode="normal" in="SourceGraphic" in2="effect1_dropShadow_486_9944" result="shape"/>
</filter>
<filter id="filter11_d_486_9944" x="58.4031" y="382.032" width="121.965" height="121.965" filterUnits="userSpaceOnUse" color-interpolation-filters="sRGB">
<feFlood flood-opacity="0" result="BackgroundImageFix"/>
<feColorMatrix in="SourceAlpha" type="matrix" values="0 0 0 0 0 0 0 0 0 0 0 0 0 0 0 0 0 0 127 0" result="hardAlpha"/>
<feOffset/>
<feGaussianBlur stdDeviation="20.0685"/>
<feComposite in2="hardAlpha" operator="out"/>
<feColorMatrix type="matrix" values="0 0 0 0 0.0235294 0 0 0 0 0.109804 0 0 0 0 0.239216 0 0 0 0.1 0"/>
<feBlend mode="normal" in2="BackgroundImageFix" result="effect1_dropShadow_486_9944"/>
<feBlend mode="normal" in="SourceGraphic" in2="effect1_dropShadow_486_9944" result="shape"/>
</filter>
<filter id="filter12_d_486_9944" x="1136.11" y="393.114" width="142.771" height="142.771" filterUnits="userSpaceOnUse" color-interpolation-filters="sRGB">
<feFlood flood-opacity="0" result="BackgroundImageFix"/>
<feColorMatrix in="SourceAlpha" type="matrix" values="0 0 0 0 0 0 0 0 0 0 0 0 0 0 0 0 0 0 127 0" result="hardAlpha"/>
<feOffset/>
<feGaussianBlur stdDeviation="21.9429"/>
<feComposite in2="hardAlpha" operator="out"/>
<feColorMatrix type="matrix" values="0 0 0 0 0.0235294 0 0 0 0 0.109804 0 0 0 0 0.239216 0 0 0 0.12 0"/>
<feBlend mode="normal" in2="BackgroundImageFix" result="effect1_dropShadow_486_9944"/>
<feBlend mode="normal" in="SourceGraphic" in2="effect1_dropShadow_486_9944" result="shape"/>
</filter>
<filter id="filter13_d_486_9944" x="1052.11" y="243.114" width="142.771" height="141.771" filterUnits="userSpaceOnUse" color-interpolation-filters="sRGB">
<feFlood flood-opacity="0" result="BackgroundImageFix"/>
<feColorMatrix in="SourceAlpha" type="matrix" values="0 0 0 0 0 0 0 0 0 0 0 0 0 0 0 0 0 0 127 0" result="hardAlpha"/>
<feOffset/>
<feGaussianBlur stdDeviation="21.9429"/>
<feComposite in2="hardAlpha" operator="out"/>
<feColorMatrix type="matrix" values="0 0 0 0 0.0235294 0 0 0 0 0.109804 0 0 0 0 0.239216 0 0 0 0.12 0"/>
<feBlend mode="normal" in2="BackgroundImageFix" result="effect1_dropShadow_486_9944"/>
<feBlend mode="normal" in="SourceGraphic" in2="effect1_dropShadow_486_9944" result="shape"/>
</filter>
<filter id="filter14_d_486_9944" x="1169.11" y="526.114" width="142.771" height="142.771" filterUnits="userSpaceOnUse" color-interpolation-filters="sRGB">
<feFlood flood-opacity="0" result="BackgroundImageFix"/>
<feColorMatrix in="SourceAlpha" type="matrix" values="0 0 0 0 0 0 0 0 0 0 0 0 0 0 0 0 0 0 127 0" result="hardAlpha"/>
<feOffset/>
<feGaussianBlur stdDeviation="21.9429"/>
<feComposite in2="hardAlpha" operator="out"/>
<feColorMatrix type="matrix" values="0 0 0 0 0.0235294 0 0 0 0 0.109804 0 0 0 0 0.239216 0 0 0 0.12 0"/>
<feBlend mode="normal" in2="BackgroundImageFix" result="effect1_dropShadow_486_9944"/>
<feBlend mode="normal" in="SourceGraphic" in2="effect1_dropShadow_486_9944" result="shape"/>
</filter>
<filter id="filter15_d_486_9944" x="1022.11" y="412.114" width="173.771" height="173.771" filterUnits="userSpaceOnUse" color-interpolation-filters="sRGB">
<feFlood flood-opacity="0" result="BackgroundImageFix"/>
<feColorMatrix in="SourceAlpha" type="matrix" values="0 0 0 0 0 0 0 0 0 0 0 0 0 0 0 0 0 0 127 0" result="hardAlpha"/>
<feOffset/>
<feGaussianBlur stdDeviation="21.9429"/>
<feComposite in2="hardAlpha" operator="out"/>
<feColorMatrix type="matrix" values="0 0 0 0 0.0235294 0 0 0 0 0.109804 0 0 0 0 0.239216 0 0 0 0.12 0"/>
<feBlend mode="normal" in2="BackgroundImageFix" result="effect1_dropShadow_486_9944"/>
<feBlend mode="normal" in="SourceGraphic" in2="effect1_dropShadow_486_9944" result="shape"/>
</filter>
<filter id="filter16_d_486_9944" x="1133.11" y="281.114" width="172.771" height="172.771" filterUnits="userSpaceOnUse" color-interpolation-filters="sRGB">
<feFlood flood-opacity="0" result="BackgroundImageFix"/>
<feColorMatrix in="SourceAlpha" type="matrix" values="0 0 0 0 0 0 0 0 0 0 0 0 0 0 0 0 0 0 127 0" result="hardAlpha"/>
<feOffset/>
<feGaussianBlur stdDeviation="21.9429"/>
<feComposite in2="hardAlpha" operator="out"/>
<feColorMatrix type="matrix" values="0 0 0 0 0.0235294 0 0 0 0 0.109804 0 0 0 0 0.239216 0 0 0 0.12 0"/>
<feBlend mode="normal" in2="BackgroundImageFix" result="effect1_dropShadow_486_9944"/>
<feBlend mode="normal" in="SourceGraphic" in2="effect1_dropShadow_486_9944" result="shape"/>
</filter>
<linearGradient id="paint0_linear_486_9944" x1="93.157" y1="47.813" x2="1185.84" y2="50.8961" gradientUnits="userSpaceOnUse">
<stop stop-color="#CEE0FA"/>
<stop offset="0.255208" stop-color="white"/>
<stop offset="0.510417" stop-color="white"/>
<stop offset="0.776042" stop-color="white"/>
<stop offset="1" stop-color="#CEE0FA"/>
</linearGradient>
<linearGradient id="paint1_linear_486_9944" x1="639.5" y1="-4.69226" x2="639.5" y2="354.745" gradientUnits="userSpaceOnUse">
<stop stop-color="white"/>
<stop offset="1" stop-color="white" stop-opacity="0"/>
</linearGradient>
<linearGradient id="paint2_linear_486_9944" x1="639.5" y1="0" x2="639.5" y2="359.438" gradientUnits="userSpaceOnUse">
<stop stop-color="white"/>
<stop offset="1" stop-color="white" stop-opacity="0"/>
</linearGradient>
<clipPath id="clip0_486_9944">
<rect width="20.1032" height="30.4" fill="white" transform="translate(207.951 282.474)"/>
</clipPath>
<clipPath id="clip1_486_9944">
<rect width="28.8" height="24.8" fill="white" transform="translate(111.934 174.94)"/>
</clipPath>
<clipPath id="clip2_486_9944">
<rect width="24.4" height="24" fill="white" transform="translate(29.7256 67.7255)"/>
</clipPath>
</defs>
</svg>
