<svg width="110" height="16" viewBox="0 0 110 16" fill="none" xmlns="http://www.w3.org/2000/svg">
<g clip-path="url(#clip0_62_373)">
<path fill-rule="evenodd" clip-rule="evenodd" d="M0 14.906V0.5H14.4094V14.906H12.2698V14.9054L12.2692 14.906L7.13207 9.77L8.65473 8.2484L12.2698 11.8628V2.6384H2.1462V12.7532H6.52348V14.906H0Z" fill="#3957BD"/>
<path d="M30.2936 7.403C30.2838 6.22224 29.9249 5.071 29.2624 4.0952C28.5984 3.11762 27.6612 2.359 26.5686 1.9148C25.4745 1.46984 24.274 1.3586 23.1173 1.595C21.9615 1.83077 20.9008 2.40396 20.0684 3.2426C19.2377 4.07961 18.673 5.14517 18.4459 6.3044C18.2193 7.46268 18.3406 8.66243 18.7944 9.7514C19.2493 10.842 20.0159 11.773 20.9974 12.4268C21.9805 13.0818 23.1342 13.4312 24.3142 13.4312C25.4249 13.4372 26.516 13.139 27.4701 12.5696L29.214 14.3204L30.6254 12.9086L28.9593 11.2358C29.8318 10.1512 30.3033 8.79692 30.2936 7.403ZM25.9803 11.087C25.4638 11.3462 24.8923 11.477 24.3142 11.4686C22.055 11.4686 20.5933 9.6758 20.5933 7.403C20.5933 5.1302 22.055 3.3374 24.3142 3.3374C26.5734 3.3374 28.035 5.1446 28.035 7.403C28.0415 8.19818 27.8418 8.98138 27.4558 9.6758L25.7472 7.9676L24.3357 9.3794L24.4134 9.4574L25.9803 11.0876V11.087ZM36.6904 9.3584C36.6904 10.6922 35.9275 11.7014 34.7911 11.7014C33.7885 11.7014 33.2804 10.9958 33.2804 9.6404V4.9682H31.24V9.9086C31.24 12.1958 32.1086 13.4378 34.0641 13.4378C34.6275 13.4127 35.1729 13.232 35.6406 12.9158C36.1076 12.5996 36.4782 12.1597 36.7113 11.645V13.1912H38.766V4.9682H36.6904V9.3584ZM42.1689 4.9682H40.1285V13.1978H42.1689V4.9682ZM42.1689 1.6436H40.1285V3.6836H42.1689V1.6436ZM48.2189 4.721C47.6574 4.74732 47.1141 4.92879 46.649 5.2454C46.1844 5.56134 45.8162 6.00042 45.5854 6.5138V4.9682H43.5737V13.1978H45.6141V8.8004C45.6141 7.4528 46.3196 6.4646 47.4913 6.4646C48.4945 6.4646 49.158 7.1702 49.158 8.5184V13.1984H51.2122V8.2574C51.2122 5.9702 50.1743 4.7282 48.2189 4.7282V4.721ZM54.4667 2.561H52.4413V11.1584C52.408 11.435 52.4382 11.7155 52.5295 11.9786C52.6208 12.2417 52.7708 12.4804 52.968 12.6764C53.1655 12.8734 53.405 13.0228 53.6685 13.1132C53.932 13.2036 54.2125 13.2328 54.4888 13.1984H56.7409V11.4194H55.061C54.9461 11.4344 54.8295 11.4097 54.7304 11.3494C54.6313 11.2891 54.5556 11.1968 54.5158 11.0876C54.4898 11.0152 54.4806 10.9379 54.4888 10.8614V6.6266H56.7409V4.9328H54.4673V2.561H54.4667Z" fill="black"/>
<path d="M61.3573 4.70001C60.4848 4.67026 59.6232 4.9019 58.8823 5.36541C58.1427 5.82799 57.5577 6.50182 57.2024 7.30041C56.8475 8.09823 56.7391 8.98454 56.8913 9.84481C57.0435 10.7051 57.4492 11.4998 58.0561 12.1262C58.6645 12.7541 59.4452 13.1863 60.299 13.3677C61.1527 13.5491 62.0409 13.4716 62.8507 13.145C63.6599 12.8186 64.3537 12.2572 64.8432 11.5328C65.3314 10.8097 65.5927 9.95648 65.5935 9.08301C65.6211 8.51216 65.5316 7.9417 65.3306 7.40698C65.1295 6.87225 64.8212 6.38466 64.4247 5.97441C64.0273 5.56297 63.5501 5.23758 63.0225 5.0183C62.495 4.79901 61.9282 4.69049 61.3573 4.69941V4.70001ZM61.3573 11.6168C60.1575 11.6168 59.183 10.7276 59.183 9.08301C59.183 7.43842 60.1575 6.52761 61.3573 6.52761C62.5577 6.52761 63.5459 7.43121 63.5459 9.08301C63.5459 10.7348 62.5787 11.6168 61.3573 11.6168ZM69.9845 1.67181L65.5158 13.1978H67.8102L68.8618 10.2476H73.6558L74.7217 13.1984H77.0162L72.5331 1.67181H69.9845ZM69.4692 8.55381L71.2483 3.61281L73.0484 8.55381H69.4692ZM82.2053 4.72101C81.6431 4.74833 81.0992 4.93015 80.633 5.24661C80.1677 5.56251 79.7981 6.00094 79.5647 6.51381L79.6 4.96821H77.5955V13.1978H79.6352V8.80041C79.6352 7.45281 80.3413 6.46461 81.5136 6.46461C82.5162 6.46461 83.1797 7.17022 83.1797 8.51841V13.1984H85.2339V8.25741C85.2339 5.97021 84.196 4.72821 82.2406 4.72821L82.2053 4.72101ZM92.6613 6.36561C92.4099 5.86577 92.0238 5.44669 91.547 5.15598C91.0702 4.86527 90.5217 4.71458 89.9639 4.72101C87.6694 4.72101 86.1234 6.73941 86.1234 9.09742C86.1234 11.4548 87.6694 13.445 89.9639 13.445C90.5265 13.437 91.0767 13.2784 91.5577 12.9854C92.0378 12.6927 92.4311 12.2763 92.6965 11.7794V13.1912H94.7363V1.67181H92.6965L92.6613 6.36561ZM90.4726 11.6666C90.1558 11.6488 89.8456 11.5677 89.5603 11.4281C89.2751 11.2885 89.0204 11.0932 88.8113 10.8536C88.603 10.6144 88.4447 10.3358 88.3456 10.0342C88.2465 9.73251 88.2087 9.41398 88.2344 9.09742C88.1955 8.61735 88.3008 8.1366 88.5366 7.71709C88.7724 7.29759 89.1279 6.95854 89.5574 6.74361C89.843 6.60024 90.154 6.515 90.4726 6.49281C91.1153 6.54124 91.713 6.84224 92.1358 7.33041C92.5577 7.81779 92.7695 8.45336 92.7246 9.09742C92.7589 9.57542 92.6496 10.0528 92.4109 10.4678C92.1722 10.8829 91.815 11.2167 91.3855 11.426C91.1 11.5658 90.7897 11.6474 90.4726 11.666V11.6666ZM99.7138 4.70001C97.4546 4.70001 96.1059 6.03381 95.8447 7.25482L97.8851 7.61481C98.0057 7.24221 98.2449 6.91968 98.566 6.69681C98.8878 6.47375 99.2735 6.36249 99.6642 6.38001C99.8855 6.36984 100.106 6.40736 100.312 6.49005C100.518 6.57275 100.703 6.69869 100.856 6.85941C101.009 7.01978 101.125 7.21128 101.197 7.42085C101.269 7.63043 101.296 7.85314 101.274 8.07381V9.11842C100.597 8.52911 99.7198 8.22346 98.8243 8.26462C97.0947 8.26462 95.7461 9.23122 95.7461 10.8122C95.7461 12.3938 96.8825 13.4312 98.6407 13.4312C99.1626 13.4587 99.6828 13.3526 100.153 13.1228C100.622 12.8934 101.024 12.5477 101.323 12.1184L101.274 13.1696H103.321V7.89801C103.321 5.85801 101.951 4.67241 99.7138 4.67241V4.70001ZM99.4807 11.942C98.3586 11.942 97.8361 11.384 97.8361 10.7912C97.8361 10.1984 98.3442 9.58402 99.4807 9.58402C100.505 9.58402 101.309 10.0292 101.309 10.6568C101.309 11.285 100.519 11.942 99.4807 11.942ZM109.216 4.83381C108.611 4.85839 108.029 5.07756 107.557 5.45901C107.085 5.83972 106.749 6.36308 106.597 6.95121H106.541L106.653 4.93221H104.614V13.1624H106.653V9.75321C106.653 7.43121 107.875 6.77481 109.061 6.77481H110V4.88301C109.739 4.83915 109.474 4.81787 109.209 4.81941" fill="black"/>
</g>
<defs>
<clipPath id="clip0_62_373">
<rect width="110" height="15" fill="white" transform="translate(0 0.5)"/>
</clipPath>
</defs>
</svg>
