<svg width="32" height="32" viewBox="0 0 32 32" fill="none" xmlns="http://www.w3.org/2000/svg">
<rect x="0.5" y="0.5" width="31" height="31" rx="3.5" fill="#FEFEFE" stroke="#F8F8F8"/>
<path d="M15.9999 20.6666C16.1318 20.6666 16.2607 20.6275 16.3703 20.5543C16.4799 20.481 16.5654 20.3769 16.6158 20.2551C16.6663 20.1333 16.6795 19.9992 16.6538 19.8699C16.6281 19.7406 16.5646 19.6218 16.4713 19.5286C16.3781 19.4353 16.2593 19.3718 16.13 19.3461C16.0007 19.3204 15.8666 19.3336 15.7448 19.384C15.623 19.4345 15.5189 19.5199 15.4456 19.6296C15.3724 19.7392 15.3333 19.8681 15.3333 20C15.3333 20.1768 15.4035 20.3463 15.5285 20.4714C15.6535 20.5964 15.8231 20.6666 15.9999 20.6666ZM19.3333 20.6666C19.4651 20.6666 19.594 20.6275 19.7036 20.5543C19.8133 20.481 19.8987 20.3769 19.9492 20.2551C19.9996 20.1333 20.0128 19.9992 19.9871 19.8699C19.9614 19.7406 19.8979 19.6218 19.8047 19.5286C19.7114 19.4353 19.5926 19.3718 19.4633 19.3461C19.334 19.3204 19.1999 19.3336 19.0781 19.384C18.9563 19.4345 18.8522 19.5199 18.7789 19.6296C18.7057 19.7392 18.6666 19.8681 18.6666 20C18.6666 20.1768 18.7368 20.3463 18.8618 20.4714C18.9869 20.5964 19.1564 20.6666 19.3333 20.6666ZM19.3333 18C19.4651 18 19.594 17.9609 19.7036 17.8876C19.8133 17.8144 19.8987 17.7102 19.9492 17.5884C19.9996 17.4666 20.0128 17.3326 19.9871 17.2032C19.9614 17.0739 19.8979 16.9551 19.8047 16.8619C19.7114 16.7687 19.5926 16.7052 19.4633 16.6794C19.334 16.6537 19.1999 16.6669 19.0781 16.7174C18.9563 16.7678 18.8522 16.8533 18.7789 16.9629C18.7057 17.0725 18.6666 17.2014 18.6666 17.3333C18.6666 17.5101 18.7368 17.6797 18.8618 17.8047C18.9869 17.9297 19.1564 18 19.3333 18ZM15.9999 18C16.1318 18 16.2607 17.9609 16.3703 17.8876C16.4799 17.8144 16.5654 17.7102 16.6158 17.5884C16.6663 17.4666 16.6795 17.3326 16.6538 17.2032C16.6281 17.0739 16.5646 16.9551 16.4713 16.8619C16.3781 16.7687 16.2593 16.7052 16.13 16.6794C16.0007 16.6537 15.8666 16.6669 15.7448 16.7174C15.623 16.7678 15.5189 16.8533 15.4456 16.9629C15.3724 17.0725 15.3333 17.2014 15.3333 17.3333C15.3333 17.5101 15.4035 17.6797 15.5285 17.8047C15.6535 17.9297 15.8231 18 15.9999 18ZM20.6666 9.99996H19.9999V9.33329C19.9999 9.15648 19.9297 8.98691 19.8047 8.86189C19.6796 8.73686 19.5101 8.66663 19.3333 8.66663C19.1564 8.66663 18.9869 8.73686 18.8618 8.86189C18.7368 8.98691 18.6666 9.15648 18.6666 9.33329V9.99996H13.3333V9.33329C13.3333 9.15648 13.263 8.98691 13.138 8.86189C13.013 8.73686 12.8434 8.66663 12.6666 8.66663C12.4898 8.66663 12.3202 8.73686 12.1952 8.86189C12.0702 8.98691 11.9999 9.15648 11.9999 9.33329V9.99996H11.3333C10.8028 9.99996 10.2941 10.2107 9.91904 10.5857C9.54397 10.9608 9.33325 11.4695 9.33325 12V21.3333C9.33325 21.8637 9.54397 22.3724 9.91904 22.7475C10.2941 23.1226 10.8028 23.3333 11.3333 23.3333H20.6666C21.197 23.3333 21.7057 23.1226 22.0808 22.7475C22.4559 22.3724 22.6666 21.8637 22.6666 21.3333V12C22.6666 11.4695 22.4559 10.9608 22.0808 10.5857C21.7057 10.2107 21.197 9.99996 20.6666 9.99996ZM21.3333 21.3333C21.3333 21.5101 21.263 21.6797 21.138 21.8047C21.013 21.9297 20.8434 22 20.6666 22H11.3333C11.1564 22 10.9869 21.9297 10.8618 21.8047C10.7368 21.6797 10.6666 21.5101 10.6666 21.3333V15.3333H21.3333V21.3333ZM21.3333 14H10.6666V12C10.6666 11.8231 10.7368 11.6536 10.8618 11.5286C10.9869 11.4035 11.1564 11.3333 11.3333 11.3333H11.9999V12C11.9999 12.1768 12.0702 12.3463 12.1952 12.4714C12.3202 12.5964 12.4898 12.6666 12.6666 12.6666C12.8434 12.6666 13.013 12.5964 13.138 12.4714C13.263 12.3463 13.3333 12.1768 13.3333 12V11.3333H18.6666V12C18.6666 12.1768 18.7368 12.3463 18.8618 12.4714C18.9869 12.5964 19.1564 12.6666 19.3333 12.6666C19.5101 12.6666 19.6796 12.5964 19.8047 12.4714C19.9297 12.3463 19.9999 12.1768 19.9999 12V11.3333H20.6666C20.8434 11.3333 21.013 11.4035 21.138 11.5286C21.263 11.6536 21.3333 11.8231 21.3333 12V14ZM12.6666 18C12.7984 18 12.9273 17.9609 13.037 17.8876C13.1466 17.8144 13.232 17.7102 13.2825 17.5884C13.333 17.4666 13.3462 17.3326 13.3204 17.2032C13.2947 17.0739 13.2312 16.9551 13.138 16.8619C13.0448 16.7687 12.926 16.7052 12.7966 16.6794C12.6673 16.6537 12.5333 16.6669 12.4115 16.7174C12.2896 16.7678 12.1855 16.8533 12.1123 16.9629C12.039 17.0725 11.9999 17.2014 11.9999 17.3333C11.9999 17.5101 12.0702 17.6797 12.1952 17.8047C12.3202 17.9297 12.4898 18 12.6666 18ZM12.6666 20.6666C12.7984 20.6666 12.9273 20.6275 13.037 20.5543C13.1466 20.481 13.232 20.3769 13.2825 20.2551C13.333 20.1333 13.3462 19.9992 13.3204 19.8699C13.2947 19.7406 13.2312 19.6218 13.138 19.5286C13.0448 19.4353 12.926 19.3718 12.7966 19.3461C12.6673 19.3204 12.5333 19.3336 12.4115 19.384C12.2896 19.4345 12.1855 19.5199 12.1123 19.6296C12.039 19.7392 11.9999 19.8681 11.9999 20C11.9999 20.1768 12.0702 20.3463 12.1952 20.4714C12.3202 20.5964 12.4898 20.6666 12.6666 20.6666Z" fill="#6E778B"/>
</svg>
